<?xml version="1.0" encoding="utf-8"?>
<!-- Generator: Adobe Illustrator 18.1.1, SVG Export Plug-In . SVG Version: 6.00 Build 0)  -->
<svg version="1.1" id="Layer_1" xmlns="http://www.w3.org/2000/svg" xmlns:xlink="http://www.w3.org/1999/xlink" x="0px" y="0px"
	 viewBox="-174 303 803 259" enable-background="new -174 303 803 259" xml:space="preserve">
<rect x="78.6" y="417.7" fill="#FFB7B7" width="25.2" height="23.8"/>
<g opacity="0.39">
	<image overflow="visible" width="109" height="107" xlink:href="8C85A381.png"  transform="matrix(1 0 0 1 39.4167 361.8768)">
	</image>
</g>
<path fill="#2F2E41" d="M356.9,424.2v-17c0-21.3,17.3-38.6,38.6-38.6c21.3,0,38.6,17.3,38.6,38.6v17c0,4.8-3.9,8.7-8.7,8.7h-52.2
	l-4.3-9.1v9.1h-3.4C360.8,432.8,356.9,429,356.9,424.2z"/>
<rect x="384" y="419.1" fill="#9E616A" width="25.2" height="23.8"/>
<g opacity="0.39">
	<image overflow="visible" width="109" height="107" xlink:href="8C85A383.png"  transform="matrix(1 0 0 1 346.4246 365.6066)">
	</image>
</g>
<path fill="#E6E6E6" d="M255.2,504.1c0-3.6-2.9-6.4-6.4-6.4c-3.6,0-6.4,2.9-6.4,6.4s2.9,6.4,6.4,6.4c0.1,0,0.2,0,0.2,0
	c1.6,5.2,2.4,10.5,2.5,15.9c0.1,2.7-0.1,5.4-0.5,8.1c-0.3,1.9-0.8,4.1-2.7,5c-1.4,0.7-0.2,2.7,1.2,2.1c2.1-1,3.2-3.2,3.6-5.4
	c0.5-2.8,0.8-5.7,0.7-8.6c0-6-0.8-11.9-2.6-17.6C253.7,508.9,255.2,506.6,255.2,504.1z"/>
<path id="a0da58c6-f23b-4b1c-a031-0451c6211c58-63" fill="#E6E6E6" d="M253.3,542.8c0,0-8.6-21.2,17.2-37.2L253.3,542.8z"/>
<path id="fe698360-631b-4312-af6d-5610d78e8b38-64" fill="#E6E6E6" d="M252.8,542.4c0,0-2.6-15.1-23-15L252.8,542.4z"/>
<path fill="#F0F0F0" d="M267.2,561h-35.4c-1.4,0-2.6-0.8-3.3-2l-7.7-15.8c-0.9-1.8-0.1-4,1.7-4.8c0.5-0.2,1-0.4,1.6-0.4h50.8
	c2,0,3.6,1.6,3.6,3.6c0,0.5-0.1,1.1-0.4,1.6l-7.7,15.8C269.9,560.2,268.6,561,267.2,561z"/>
<path fill="#3F3D56" d="M569.7,562h-644c-0.4,0-0.8-0.4-0.8-0.8s0.4-0.8,0.8-0.8h644c0.4,0,0.8,0.4,0.8,0.8S570.1,562,569.7,562z"/>
<path fill="#63FFB4" d="M59.2,515.3l-15.6-59.1l-1.8-6.8l1.7-1.6c0,0,32.9-13.3,34.6-12.5c8.4,3.8,17.2,3.5,26.3,1.2
	c3.2-0.8,34.2,10.4,34.2,10.4l0.1,9.2l1.2,83.3l4.9,20.4H55.4l6.9-32.6L59.2,515.3z"/>
<path fill="#63FFB4" d="M162,559.9h-23.3l-6.4-46.4l1.7-57.3l0.2-7.8l4.4-1.5c3.4,2.4,6.1,5.6,8.1,9.2c2.9,5,5.2,12.1,4.6,21.7
	c0,0,0.5,11.3,0,18.9C151,501.9,157.1,534.4,162,559.9z"/>
<path fill="#63FFB4" d="M59.3,514.7l-0.1,0.6L53,559.9H26.2c2.1-25.3,4.7-56.9,4.3-62c-0.5-7.5,0-18.9,0-18.9
	c-0.6-10.4,2.2-17.9,5.4-22.9c1.6-2.5,3.5-4.8,5.8-6.8c0.5-0.4,1-0.8,1.6-1.2l4.4,1.4l1.2,6.6L59.3,514.7z"/>
<path fill="#3F3D56" d="M183.3,555.3L183.3,555.3c0,3.4-2.8,6.2-6.2,6.2H11.1c-3.4,0-6.2-2.8-6.2-6.2l0,0l0,0c0-3.4,2.8-6.2,6.2-6.2
	h1.8c-0.1-0.4-0.2-0.8-0.2-1.1v-84.8c0-3,2.4-5.4,5.4-5.4h151.9c3,0,5.4,2.4,5.4,5.4V548c0,0.4-0.1,0.8-0.2,1.1h1.8
	C180.6,549.1,183.3,551.9,183.3,555.3z"/>
<path fill="#FFFFFF" d="M97.3,506.2c-5.3,0-9.6-4.3-9.6-9.6s4.3-9.6,9.6-9.6c5.3,0,9.6,4.3,9.6,9.6
	C106.9,501.9,102.6,506.2,97.3,506.2z M97.3,488.6c-4.4,0-8,3.6-8,8c0,4.4,3.6,8,8,8c4.4,0,8-3.6,8-8c0,0,0,0,0,0
	C105.3,492.2,101.7,488.6,97.3,488.6z"/>
<circle fill="#FFFFFF" cx="94.1" cy="493.4" r="8.8"/>
<path fill="#9E616A" d="M430.6,473.9l1.7,18l0.8,8.2l1.2,13l0.2,1.7l1,10.6l0,0.1c1.3,4.1,5.1,6.8,9.3,6.8l44.8-0.8l12.6-0.2
	c0.2,0.4,0.5,0.7,0.7,1c2.2,2.7,5.5,4.4,9.1,4.5c3.5,0.2,7-1.2,9.4-3.8c0.2-0.2,0.5-0.5,0.7-0.8c3.4-4.2,3.7-10.1,0.8-14.6
	c-1.9-3-5-5-8.5-5.5c-3.5-0.5-7,0.4-9.8,2.7c-0.4,0.4-0.8,0.7-1.2,1.2l-13.9-2l-34.9-5.1l-1.5-20.2c0-0.1,0-0.2,0-0.3l-1.2-16.3
	c-0.4-5.6-5.1-9.9-10.8-9.9c-0.9,0-1.8,0.1-2.6,0.4c-1,0.3-1.9,0.7-2.7,1.2C432.2,465.9,430.2,469.8,430.6,473.9z"/>
<circle fill="#9E616A" cx="397" cy="408.5" r="25.3"/>
<path fill="#63FFB4" d="M437.7,444.3l4.6-1.6c0,0,9.2,4,9.2,11.1s1.5,35.7,1.5,35.7l-20.7,2.4L437.7,444.3z"/>
<path fill="#9E616A" d="M339.8,560.7h18.2l6.2-52.3l2.3-18.9l0.3-2.6l1.7-14c0.3-5.3-3.8-9.9-9.1-10.1c-1.9-0.1-3.9,0.4-5.5,1.4
	c-0.4,0.2-0.7,0.5-1.1,0.8c-2.1,1.7-3.4,4.3-3.5,7l-1.6,15.4L339.8,560.7z"/>
<path fill="#63FFB4" d="M367.9,489.6l-20.7-2.4c0,0,1.5-28.6,1.5-35.8c0-7.2,9.2-11.1,9.2-11.1l4.6,1.6L367.9,489.6z"/>
<path fill="#2F2E41" d="M360.5,560.7H447c-2.7-10.5-6.5-20.7-11.2-30.4c-0.8-1.6-1.2-2.4-1.2-2.4s-36.8-0.7-59.8,8.5
	c-1.5,0.6-2.8,1.6-3.9,2.8C367,543.2,363.5,551,360.5,560.7z"/>
<path fill="#63FFB4" d="M384,436c5.4,1.3,14,2.6,25.2,0.8c3.6-0.6,30.6,5.6,30.6,5.6l2.4,0.7c0,0-2.3,46.7-8.4,55.2
	c-6.1,8.6-4.6,13.2-3.1,14c1.5,0.8,5.4-0.8,3.1,3.1s-5.4,1.6-2.3,3.9c3.1,2.3,4.6,10.9,4.6,10.9l-67.5,9.3c0,0-2.3-30.3-8.4-45.9
	c-6.1-15.6-7.7-21.8-7.7-21.8l4.6-31.1C357.2,440.6,378.6,434.7,384,436z"/>
<path fill="#2F2E41" d="M369.7,394.3c0-13.8,11.2-24.9,24.9-24.9c13.8,0,24.9,11.2,24.9,24.9v11.3h-49.8V394.3z"/>
<path fill="#3F3D56" d="M486.4,554.4v2.2c0,2.7-2.2,4.9-4.9,4.9H318.3c-2.7,0-4.9-2.2-4.9-4.9v-2.2c0-2.7,2.2-4.9,4.9-4.9h2.9
	c-0.1-0.4-0.2-0.7-0.2-1.1v-83.3c0-2.3,1.8-4.1,4.1-4.1h149.5c2.3,0,4.1,1.8,4.1,4.1v83.3c0,0.4-0.1,0.7-0.2,1.1h2.9
	C484.2,549.5,486.4,551.7,486.4,554.4z"/>
<path fill="#FFFFFF" d="M403.1,508c-5.2,0-9.3-4.2-9.3-9.3c0-5.2,4.2-9.3,9.3-9.3c5.2,0,9.3,4.2,9.3,9.3
	C412.5,503.8,408.3,508,403.1,508z M403.1,491c-4.3,0-7.7,3.5-7.7,7.7s3.5,7.7,7.7,7.7c4.3,0,7.7-3.5,7.7-7.7
	C410.8,494.4,407.4,491,403.1,491L403.1,491z"/>
<circle fill="#FFFFFF" cx="399.9" cy="495.5" r="8.5"/>
<g>
	<path fill="#FFB7B7" d="M62.3,402.3c0,15.9,12.9,28.8,28.8,28.8s28.8-12.9,28.8-28.8s-12.9-28.8-28.8-28.8l0,0l0,0
		c-15.9,0-28.8,12.8-28.8,28.7C62.3,402.2,62.3,402.2,62.3,402.3z"/>
	<path fill="#2F2E41" d="M123.9,378.3c-2.3-1.8-4.2-4.1-5.5-6.7c-0.5-1-1.1-1.9-1.9-2.7l-5.5,4.2l3.3-5.8
		c-8.5-5.2-25.2-2.4-25.2-2.4c-17.3-9.2-23.7,2.3-25.9,9.6c-0.9,2.6-2.4,5-4.5,6.9c-4.3,4.1,2.5,12,2.5,12v0.6l1.6,10.9
		c0,0,1.6-7.2,5.9-12.3c2.7-3.2,7-5.1,9.1-5.1c26.1,0.5,31,1.5,31,1.5s4.4,2.4,6.4,3.4c6.3,3.2,4.8,14.9,4.8,14.9l4.7-20.7
		C125.6,381.6,125,379.3,123.9,378.3z"/>
</g>
<g>
	<path fill="#63FFB4" d="M23.3,388.1c0.6,0,1.1,0.5,1.1,1.1v23.3c0,0.6-0.5,1.1-1.1,1.1H0.5c-0.6,0-1.1-0.5-1.1-1.1v-23.3
		c0-0.6,0.5-1.1,1.1-1.1L23.3,388.1 M23.3,387.1H0.5c-1.2,0-2.1,1-2.1,2.1v23.3c0,1.2,1,2.1,2.1,2.1h22.8c1.2,0,2.1-1,2.1-2.1v-23.3
		C25.4,388,24.5,387.1,23.3,387.1L23.3,387.1z"/>
	<path fill="#63FFB4" d="M19.7,394.3H4.5c-0.3,0-0.5-0.2-0.5-0.5c0-0.3,0.2-0.5,0.5-0.5c0,0,0,0,0,0h15.2c0.3,0,0.5,0.2,0.5,0.5
		C20.2,394,20,394.3,19.7,394.3z"/>
	<path fill="#63FFB4" d="M19.7,398.1H4.5c-0.3,0-0.5-0.2-0.5-0.5s0.2-0.5,0.5-0.5h15.2c0.3,0,0.5,0.2,0.5,0.5S20,398.1,19.7,398.1z"
		/>
	<path fill="#63FFB4" d="M19.7,401.9H4.5c-0.3,0-0.5-0.2-0.5-0.5c0-0.3,0.2-0.5,0.5-0.5c0,0,0,0,0,0h15.2c0.3,0,0.5,0.2,0.5,0.5
		C20.2,401.6,20,401.9,19.7,401.9z"/>
	<path fill="#63FFB4" d="M19.7,405.7H4.5c-0.3,0-0.5-0.2-0.5-0.5c0-0.3,0.2-0.5,0.5-0.5c0,0,0,0,0,0h15.2c0.3,0,0.5,0.2,0.5,0.5
		C20.2,405.4,20,405.7,19.7,405.7z"/>
	<path fill="#63FFB4" d="M19.7,409.5H4.5c-0.3,0-0.5-0.2-0.5-0.5c0-0.3,0.2-0.5,0.5-0.5c0,0,0,0,0,0h15.2c0.3,0,0.5,0.2,0.5,0.5
		C20.2,409.2,20,409.5,19.7,409.5z"/>
</g>
<g>
	<circle fill="#E6E6E6" cx="-120.5" cy="377.1" r="5"/>
	<circle fill="#E6E6E6" cx="-105.5" cy="377.1" r="5"/>
	<circle fill="#E6E6E6" cx="-90.4" cy="377.1" r="5"/>
	<circle fill="#E6E6E6" cx="-75.4" cy="377.1" r="5"/>
	<circle fill="#E6E6E6" cx="-60.4" cy="377.1" r="5"/>
	<circle fill="#E6E6E6" cx="-45.3" cy="377.1" r="5"/>
	<circle fill="#E6E6E6" cx="-30.3" cy="377.1" r="5"/>
	<path fill="#E6E6E6" d="M-18.7,383.2h-113.4c-1.1,0-2-0.9-2-2v-8.1c0-1.1,0.9-2,2-2h113.4c1.1,0,2,0.9,2,2v8.1
		C-16.7,382.3-17.6,383.2-18.7,383.2z M-132.1,371.9c-0.7,0-1.2,0.5-1.2,1.2v8.1c0,0.7,0.5,1.2,1.2,1.2h113.4c0.7,0,1.2-0.5,1.2-1.2
		v-8.1c0-0.7-0.5-1.2-1.2-1.2H-132.1z"/>
	<path fill="#E6E6E6" d="M-107.8,337.6c0.6,0,1.2,0.5,1.2,1.2v25.4c0,0.6-0.5,1.2-1.2,1.2h-24.9c-0.6,0-1.2-0.5-1.2-1.2v-25.4
		c0-0.6,0.5-1.2,1.2-1.2L-107.8,337.6 M-107.8,336.4h-24.9c-1.3,0-2.3,1-2.3,2.3v25.4c0,1.3,1,2.3,2.3,2.3h24.9c1.3,0,2.3-1,2.3-2.3
		v-25.4C-105.5,337.5-106.5,336.4-107.8,336.4L-107.8,336.4z"/>
	<path fill="#63FFB4" d="M-111.7,344.3h-16.6c-0.3,0-0.6-0.3-0.6-0.6s0.3-0.6,0.6-0.6c0,0,0,0,0,0h16.6c0.3,0,0.6,0.3,0.6,0.6
		C-111.1,344-111.4,344.3-111.7,344.3C-111.7,344.3-111.7,344.3-111.7,344.3L-111.7,344.3z"/>
	<path fill="#63FFB4" d="M-111.7,348.4h-16.6c-0.3,0-0.6-0.3-0.6-0.6s0.3-0.6,0.6-0.6c0,0,0,0,0,0h16.6c0.3,0,0.6,0.3,0.6,0.6
		S-111.4,348.4-111.7,348.4C-111.7,348.4-111.7,348.4-111.7,348.4L-111.7,348.4z"/>
	<path fill="#63FFB4" d="M-111.7,352.6h-16.6c-0.3,0-0.6-0.3-0.6-0.6s0.3-0.6,0.6-0.6c0,0,0,0,0,0h16.6c0.3,0,0.6,0.3,0.6,0.6
		S-111.4,352.6-111.7,352.6C-111.7,352.6-111.7,352.6-111.7,352.6L-111.7,352.6z"/>
	<path fill="#63FFB4" d="M-111.7,356.7h-16.6c-0.3,0-0.6-0.3-0.6-0.6s0.3-0.6,0.6-0.6c0,0,0,0,0,0h16.6c0.3,0,0.6,0.3,0.6,0.6
		S-111.4,356.7-111.7,356.7C-111.7,356.7-111.7,356.7-111.7,356.7L-111.7,356.7z"/>
	<path fill="#63FFB4" d="M-111.7,360.9h-16.6c-0.3,0-0.6-0.3-0.6-0.6c0-0.3,0.3-0.6,0.6-0.6c0,0,0,0,0,0h16.6c0.3,0,0.6,0.3,0.6,0.6
		C-111.1,360.6-111.4,360.9-111.7,360.9L-111.7,360.9z"/>
	<path fill="#E6E6E6" d="M-22.9,337.6c0.6,0,1.2,0.5,1.2,1.2v25.4c0,0.6-0.5,1.2-1.2,1.2h-24.9c-0.6,0-1.2-0.5-1.2-1.2v-25.4
		c0-0.6,0.5-1.2,1.2-1.2L-22.9,337.6 M-22.9,336.4h-24.9c-1.3,0-2.3,1-2.3,2.3l0,0v25.4c0,1.3,1,2.3,2.3,2.3l0,0h24.9
		c1.3,0,2.3-1,2.3-2.3l0,0v-25.4C-20.5,337.5-21.6,336.4-22.9,336.4L-22.9,336.4L-22.9,336.4z"/>
	<path fill="#63FFB4" d="M-26.7,344.3h-16.6c-0.3,0-0.6-0.3-0.6-0.6c0-0.3,0.3-0.6,0.6-0.6c0,0,0,0,0,0h16.6c0.3,0,0.6,0.3,0.6,0.6
		C-26.2,344-26.4,344.3-26.7,344.3L-26.7,344.3z"/>
	<path fill="#63FFB4" d="M-26.7,348.4h-16.6c-0.3,0-0.6-0.3-0.6-0.6c0-0.3,0.3-0.6,0.6-0.6c0,0,0,0,0,0h16.6c0.3,0,0.6,0.3,0.6,0.6
		C-26.2,348.2-26.4,348.4-26.7,348.4L-26.7,348.4z"/>
	<path fill="#63FFB4" d="M-26.7,352.6h-16.6c-0.3,0-0.6-0.3-0.6-0.6c0-0.3,0.3-0.6,0.6-0.6c0,0,0,0,0,0h16.6c0.3,0,0.6,0.3,0.6,0.6
		C-26.2,352.3-26.4,352.6-26.7,352.6L-26.7,352.6z"/>
	<path fill="#63FFB4" d="M-26.7,356.7h-16.6c-0.3,0-0.6-0.3-0.6-0.6c0-0.3,0.3-0.6,0.6-0.6c0,0,0,0,0,0h16.6c0.3,0,0.6,0.3,0.6,0.6
		C-26.2,356.5-26.4,356.7-26.7,356.7L-26.7,356.7z"/>
	<path fill="#63FFB4" d="M-26.7,360.9h-16.6c-0.3,0-0.6-0.3-0.6-0.6c0-0.3,0.3-0.6,0.6-0.6c0,0,0,0,0,0h16.6c0.3,0,0.6,0.3,0.6,0.6
		C-26.1,360.6-26.4,360.9-26.7,360.9L-26.7,360.9z"/>
	<path fill="#E6E6E6" d="M-65,366.5h-25.5c-1.4,0-2.6-1.2-2.6-2.6v-18.3c0-1.4,1.2-2.6,2.6-2.6H-65c1.4,0,2.6,1.2,2.6,2.6v18.3
		C-62.4,365.3-63.6,366.5-65,366.5z M-90.5,344.2c-0.8,0-1.4,0.6-1.4,1.4v18.3c0,0.8,0.6,1.4,1.4,1.4H-65c0.8,0,1.4-0.6,1.4-1.4
		v-18.3c0-0.8-0.6-1.4-1.4-1.4H-90.5z"/>
	<path fill="#63FFB4" d="M-69.5,351.2h-16.6c-0.3,0-0.6-0.3-0.6-0.6c0-0.3,0.3-0.6,0.6-0.6h16.6c0.3,0,0.6,0.3,0.6,0.6
		C-68.9,350.9-69.1,351.2-69.5,351.2C-69.5,351.2-69.5,351.2-69.5,351.2z"/>
	<path fill="#63FFB4" d="M-69.5,355.4h-16.6c-0.3,0-0.6-0.3-0.6-0.6c0-0.3,0.3-0.6,0.6-0.6h16.6c0.3,0,0.6,0.3,0.6,0.6
		C-68.9,355.1-69.1,355.4-69.5,355.4C-69.5,355.4-69.5,355.4-69.5,355.4z"/>
	<path fill="#63FFB4" d="M-69.5,359.5h-16.6c-0.3,0-0.6-0.3-0.6-0.6c0-0.3,0.3-0.6,0.6-0.6h16.6c0.3,0,0.6,0.3,0.6,0.6
		C-68.9,359.2-69.1,359.5-69.5,359.5C-69.5,359.5-69.5,359.5-69.5,359.5z"/>
	<path fill="#E6E6E6" d="M19.7,376.6l-24.5-7.1c-1.4-0.4-2.2-1.8-1.8-3.2l5.1-17.5c0.4-1.4,1.8-2.2,3.2-1.8l24.5,7.1
		c1.4,0.4,2.2,1.8,1.8,3.2l-5.1,17.5C22.5,376.2,21.1,377,19.7,376.6z M1.4,348.1c-0.8-0.2-1.6,0.2-1.8,1l-5.1,17.5
		c-0.2,0.8,0.2,1.6,1,1.8l24.5,7.1c0.8,0.2,1.6-0.2,1.8-1l5.1-17.5c0.2-0.8-0.2-1.6-1-1.8L1.4,348.1z"/>
	<path fill="#63FFB4" d="M19.7,360.7l-15.9-4.6c-0.3-0.1-0.5-0.4-0.4-0.7c0.1-0.3,0.4-0.5,0.7-0.4l15.9,4.6c0.3,0.1,0.5,0.4,0.4,0.7
		C20.3,360.6,20,360.8,19.7,360.7L19.7,360.7z"/>
	<path fill="#63FFB4" d="M18.5,364.7l-15.9-4.6c-0.3-0.1-0.5-0.4-0.4-0.7c0.1-0.3,0.4-0.5,0.7-0.4l15.9,4.6c0.3,0.1,0.5,0.4,0.4,0.7
		S18.8,364.8,18.5,364.7L18.5,364.7z"/>
	<path fill="#63FFB4" d="M17.4,368.7L1.4,364c-0.3-0.1-0.5-0.4-0.4-0.7c0.1-0.3,0.4-0.5,0.7-0.4l15.9,4.6c0.3,0.1,0.5,0.4,0.4,0.7
		C18,368.6,17.7,368.8,17.4,368.7z"/>
</g>
<g>
	<path fill="#E6E6E6" d="M500.5,405.2c-0.4,0-0.7,0.3-0.7,0.7v35.5c0,0.4,0.3,0.7,0.7,0.7h41c0.4,0,0.7-0.3,0.7-0.7v-35.5
		c0-0.4-0.3-0.7-0.7-0.7H500.5z"/>
	<path fill="#E6E6E6" d="M501.3,459.8c-0.8,0-1.5,0.7-1.5,1.5c0,0.8,0.7,1.4,1.5,1.5h38.6c0.8,0,1.5-0.7,1.5-1.5
		c0-0.8-0.7-1.4-1.5-1.5H501.3z"/>
	<path fill="#63FFB4" d="M501.3,466.7c-0.8,0-1.5,0.7-1.5,1.5c0,0.8,0.7,1.5,1.5,1.5h17.4c0.8,0,1.5-0.7,1.5-1.5
		c0-0.8-0.7-1.5-1.5-1.5H501.3z"/>
	<path fill="#E6E6E6" d="M501.3,452.6c-0.8,0-1.5,0.7-1.5,1.5c0,0.8,0.7,1.4,1.5,1.5h38.6c0.8,0,1.5-0.7,1.5-1.5
		c0-0.8-0.7-1.4-1.5-1.5H501.3z"/>
</g>
<g>
	<path fill="#E6E6E6" d="M288.6,363.7c-0.4,0-0.7,0.3-0.7,0.7V400c0,0.4,0.3,0.7,0.7,0.7h41c0.4,0,0.7-0.3,0.7-0.7v-35.5
		c0-0.4-0.3-0.7-0.7-0.7H288.6z"/>
	<path fill="#E6E6E6" d="M289.4,418.3c-0.8,0-1.5,0.7-1.5,1.5c0,0.8,0.7,1.4,1.5,1.5H328c0.8,0,1.5-0.7,1.5-1.5
		c0-0.8-0.7-1.4-1.5-1.5H289.4z"/>
	<path fill="#63FFB4" d="M289.4,425.2c-0.8,0-1.5,0.7-1.5,1.5c0,0.8,0.7,1.5,1.5,1.5h17.4c0.8,0,1.5-0.7,1.5-1.5
		c0-0.8-0.7-1.5-1.5-1.5H289.4z"/>
	<path fill="#E6E6E6" d="M289.4,411.1c-0.8,0-1.5,0.7-1.5,1.5c0,0.8,0.7,1.4,1.5,1.5H328c0.8,0,1.5-0.7,1.5-1.5
		c0-0.8-0.7-1.4-1.5-1.5H289.4z"/>
</g>
<g>
	<path fill="#E6E6E6" d="M447.7,324c-0.4,0-0.7,0.3-0.7,0.7v35.5c0,0.4,0.3,0.7,0.7,0.7h41c0.4,0,0.7-0.3,0.7-0.7v-35.5
		c0-0.4-0.3-0.7-0.7-0.7H447.7z"/>
	<path fill="#E6E6E6" d="M448.5,378.5c-0.8,0-1.5,0.7-1.5,1.5c0,0.8,0.7,1.4,1.5,1.5h38.6c0.8,0,1.5-0.7,1.5-1.5
		c0-0.8-0.7-1.4-1.5-1.5H448.5z"/>
	<path fill="#63FFB4" d="M448.5,385.4c-0.8,0-1.5,0.7-1.5,1.5c0,0.8,0.7,1.5,1.5,1.5h17.4c0.8,0,1.5-0.7,1.5-1.5
		c0-0.8-0.7-1.5-1.5-1.5H448.5z"/>
	<path fill="#E6E6E6" d="M448.5,371.4c-0.8,0-1.5,0.7-1.5,1.5c0,0.8,0.7,1.4,1.5,1.5h38.6c0.8,0,1.5-0.7,1.5-1.5
		c0-0.8-0.7-1.4-1.5-1.5H448.5z"/>
</g>
<rect x="220.9" y="359.2" fill="#198754" width="13.1" height="13.1"/>
<rect x="55.8" y="341.9" fill="#198754" width="13.1" height="13.1"/>
<rect x="557.3" y="367.7" fill="#198754" width="13.1" height="13.1"/>
<rect x="207.4" y="461.6" fill="#198754" width="13.1" height="13.1"/>
<rect x="-46.9" y="499.1" fill="#198754" width="13.1" height="13.1"/>
<rect x="-87" y="433" fill="#198754" width="13.1" height="13.1"/>
<rect x="378.7" y="329.9" fill="#198754" width="13.1" height="13.1"/>
</svg>
