<?xml version="1.0" encoding="utf-8"?>
<!-- Generator: Adobe Illustrator 18.1.1, SVG Export Plug-In . SVG Version: 6.00 Build 0)  -->
<svg version="1.1" id="Layer_1" xmlns="http://www.w3.org/2000/svg" xmlns:xlink="http://www.w3.org/1999/xlink" x="0px" y="0px"
	 viewBox="-89 118.6 971.1 628.4" enable-background="new -89 118.6 971.1 628.4" xml:space="preserve">
<path fill="#CACACA" d="M573.6,340.5l-34.3,1.5c0,0,2.9,17.8-15.7,19.4c-18.6,1.7-35.5-3.4-42.2,9.3c-6.8,12.7-3.8,57.7-3.8,57.7
	s12.7,45.6,22.8,52.3c10.1,6.8,98.8-2.5,98.8-2.5l37.1-46.8l-1.3-36.1c-0.7-18.9-17.9-33-36.4-29.5c-0.4,0.1-0.7,0.1-1.1,0.2
	c-0.6,0.1-4.1-3-15.3-8.6C575.3,354,573.6,340.5,573.6,340.5z"/>
<path fill="#2F2E41" d="M499.1,360.7c0,0,8.2,14.8,4.8,35.9s10.8,65.7,10.8,65.7l10.1-2.5c0,0-6.8-43.9-5.1-54
	c1.7-10.1,2.2-40-6.3-45.1C505,355.6,499.1,360.7,499.1,360.7z"/>
<path fill="#2F2E41" d="M596.8,368.4l3.5,93.5l6.8,4.2c0,0,9.7-102.6,4.6-102.6h-10.3c-2.6,0-4.6,2.1-4.6,4.6l0,0
	C596.8,368.3,596.8,368.4,596.8,368.4z"/>
<circle fill="#6C63FF" cx="519.3" cy="456" r="4.2"/>
<circle fill="#6C63FF" cx="603.7" cy="460.2" r="4.2"/>
<path fill="#3F3D56" d="M660,516v2.8c0,0.8-0.1,1.5-0.4,2.3c-0.1,0.3-0.3,0.6-0.5,0.9c-1.1,1.9-3.2,3.1-5.4,3.1h-208
	c-2.2,0-4.3-1.2-5.4-3.1c-0.2-0.3-0.3-0.6-0.5-0.9c-0.3-0.7-0.4-1.5-0.4-2.3V516c0-3.5,2.8-6.3,6.3-6.3h0h12v-1.3
	c0-0.1,0.1-0.3,0.3-0.3h0h6.3c0.1,0,0.3,0.1,0.3,0.3v1.3h3.9v-1.3c0-0.1,0.1-0.3,0.3-0.3l0,0h6.3c0.1,0,0.3,0.1,0.3,0.3v1.3h3.9
	v-1.3c0-0.1,0.1-0.3,0.3-0.3l0,0h6.3c0.1,0,0.3,0.1,0.3,0.3v1.3h3.9v-1.3c0-0.1,0.1-0.3,0.3-0.3l0,0h6.3c0.1,0,0.3,0.1,0.3,0.3v1.3
	h3.9v-1.3c0-0.1,0.1-0.3,0.3-0.3h0h6.3c0.1,0,0.3,0.1,0.3,0.3v1.3h3.9v-1.3c0-0.1,0.1-0.3,0.3-0.3l0,0h6.3c0.1,0,0.3,0.1,0.3,0.3
	v1.3h3.9v-1.3c0-0.1,0.1-0.3,0.3-0.3l0,0h49c0.1,0,0.3,0.1,0.3,0.3l0,0v1.3h3.9v-1.3c0-0.1,0.1-0.3,0.3-0.3l0,0h6.3
	c0.1,0,0.3,0.1,0.3,0.3v1.3h3.9v-1.3c0-0.1,0.1-0.3,0.3-0.3l0,0h6.3c0.1,0,0.3,0.1,0.3,0.3l0,0v1.3h3.9v-1.3c0-0.1,0.1-0.3,0.3-0.3
	l0,0h6.3c0.1,0,0.3,0.1,0.3,0.3l0,0v1.3h3.9v-1.3c0-0.1,0.1-0.3,0.3-0.3l0,0h6.3c0.1,0,0.3,0.1,0.3,0.3v1.3h3.9v-1.3
	c0-0.1,0.1-0.3,0.3-0.3l0,0h6.3c0.1,0,0.3,0.1,0.3,0.3l0,0v1.3h3.9v-1.3c0-0.1,0.1-0.3,0.3-0.3l0,0h6.3c0.1,0,0.3,0.1,0.3,0.3l0,0
	v1.3h18.2C657.2,509.8,660,512.6,660,516L660,516z"/>
<rect x="379" y="524.4" fill="#3F3D56" width="452.3" height="0.9"/>
<path fill="#3F3D56" d="M643.2,397H452.7c-2.9,0-5.2,2.3-5.2,5.2l0,0v106.2c0,2.9,2.3,5.2,5.2,5.2h190.5c2.9,0,5.2-2.3,5.2-5.2
	V402.2C648.5,399.3,646.1,397,643.2,397L643.2,397z"/>
<circle fill="#FFFFFF" cx="548.1" cy="434" r="11.6"/>
<rect x="740.6" y="314" fill="#63FF92" width="68.1" height="6.1"/>
<rect x="345.2" y="262.2" fill="#63FF92" width="68.1" height="6.1"/>
<path fill="#A0616A" d="M143.9,282.5c0,0,6.5,48.9-3.5,54.4c-10,5.5,59.4,6,59.4,6s-15.5-42.4-8.5-55.4L143.9,282.5z"/>
<path fill="#D0CDE1" d="M250.5,343.2l-5.8,26.3L232.5,425l-0.4,3l-4.2,35.3l-2.8,23.4l-1.9,15.7c-11.4,5.9-19.7,9.9-19.7,9.9
	s-0.7-3.6-1.9-8.1c-8,2.4-22.8,6.4-35.4,7.2c4.6,5.1,6.7,9.9,3.8,13.4c-8.6,10.7-44.2-11.7-56.6-20c-0.3,2-0.4,4-0.3,6l-9.5-7.3
	l0.9-16.8l1.6-28.5l2-35.7c-0.6-1.5-1.2-3.1-1.6-4.7c-2.9-10.4-6.5-31.1-9.2-48.4c-2.2-14-3.8-25.8-4.2-28.3c0-0.3-0.1-0.5-0.1-0.5
	l52.7-23.3c3.7,8.7,21.2,11.3,21.2,11.3c14.5-1,25.8-8.6,25.8-8.6L250.5,343.2z"/>
<path fill="#A0616A" d="M207.6,502.4c0,0-2.2,0.8-5.9,1.8c-8,2.4-22.8,6.4-35.4,7.2c-10.8,0.7-20-1-21.6-8c-0.7-3,0.3-5.5,2.5-7.6
	c6.6-6.1,23.9-8.3,37.6-9.1c3.9-0.2,7.4-0.3,10.4-0.3c5.1-0.1,8.4,0,8.4,0l0.1,0.3L207.6,502.4z"/>
<path fill="#D0CDE1" d="M288,464c-3.5,3.8-12.2,9.5-22.7,15.7c-3.9,2.3-8.1,4.7-12.4,7c-10.2,5.6-20.8,11.2-29.6,15.7
	c-11.4,5.9-19.7,9.9-19.7,9.9s-0.7-3.6-1.9-8.1c-1.5-6.1-3.9-14-6.3-17.5c-0.1-0.1-0.2-0.2-0.3-0.3c-0.7-0.9-1.4-1.5-2.1-1.5
	l34.9-21.6L243,454l-10.9-25.9l-13.6-32.5l8.2-26.1l8.3-26.3h15.5c0,0,5.1,11.2,11.7,26.8c1,2.3,2,4.8,3,7.3
	C278.7,410,295.5,455.8,288,464z"/>
<path fill="#A0616A" d="M170.1,524.9c-8.6,10.7-44.2-11.7-56.6-20c-2.7-1.8-4.3-3-4.3-3l11.4-15.2l3.6-4.8c0,0,3.2,1.7,8,4.5
	c0.2,0.1,0.3,0.2,0.5,0.3c4.1,2.4,9.3,5.6,14.5,9.1c7.2,4.9,14.4,10.4,19.1,15.6C170.9,516.6,173,521.4,170.1,524.9z"/>
<path fill="#D0CDE1" d="M132.2,486.5c-1.3,0-2.5,0.1-3.8,0.3c-10.8,1.9-13.9,11.6-14.9,18.1c-0.3,2-0.4,4-0.3,6l-9.5-7.3l-3.5-2.7
	c-8.3-2.9-15.8-8.1-22.2-14.2c-5.6-5.4-10.6-11.3-15-17.8c-4.3-6.3-8.2-13-11.6-19.9c-1.9-3.9-2-8.4-0.2-12.4L63,410.5l17.2-38.4
	c0.1-0.9,0.3-1.8,0.4-2.7c3.4-19.6,12.6-28.3,12.6-28.3h7l4.7,28.3l5.8,35.1l-4.1,13.3l-9.4,30.7l9,9.8L132.2,486.5z"/>
<path fill="#198754" d="M140.1,403.6l6,7c2.2-0.4,4.5-0.9,6.9-1.5l-1.7-5.5l4.2,4.9c25.3-6.2,56.7-18.3,56.7-18.3s-33.9,2.5-59.1-3
	c-11.2-2.4-22.7,3.1-27.3,13.6c-2.7,6.1-2.2,11.4,7.2,11.4c3.2-0.1,6.4-0.4,9.5-0.9L140.1,403.6z"/>
<path fill="#3F3D56" d="M276.3,519.2v2.8c0,0.8-0.1,1.6-0.4,2.3c-0.1,0.3-0.3,0.6-0.5,0.9c-1.1,1.9-3.2,3.1-5.4,3.1H60.8
	c-2.2,0-4.3-1.2-5.4-3.1c-0.2-0.3-0.3-0.6-0.5-0.9c-0.3-0.7-0.4-1.5-0.4-2.3v-2.8c0-3.5,2.8-6.3,6.3-6.3c0,0,0,0,0,0h12.1v-1.3
	c0-0.1,0.1-0.3,0.3-0.3c0,0,0,0,0,0h6.3c0.1,0,0.3,0.1,0.3,0.3v0v1.3h3.9v-1.3c0-0.1,0.1-0.3,0.3-0.3c0,0,0,0,0,0h6.3
	c0.1,0,0.3,0.1,0.3,0.3v0v1.3h3.9v-1.3c0-0.1,0.1-0.3,0.3-0.3h0h6.3c0.1,0,0.3,0.1,0.3,0.3v0v1.3h3.9v-1.3c0-0.1,0.1-0.3,0.3-0.3h0
	h6.3c0.1,0,0.3,0.1,0.3,0.3v0v1.3h3.9v-1.3c0-0.1,0.1-0.3,0.3-0.3c0,0,0,0,0,0h6.3c0.1,0,0.3,0.1,0.3,0.3v0v1.3h3.9v-1.3
	c0-0.1,0.1-0.3,0.3-0.3h0h6.3c0.1,0,0.3,0.1,0.3,0.3v0v1.3h3.9v-1.3c0-0.1,0.1-0.3,0.3-0.3c0,0,0,0,0,0h49.3c0.1,0,0.3,0.1,0.3,0.3
	v0v1.3h3.9v-1.3c0-0.1,0.1-0.3,0.3-0.3c0,0,0,0,0,0h6.3c0.1,0,0.3,0.1,0.3,0.3v1.3h3.9v-1.3c0-0.1,0.1-0.3,0.3-0.3c0,0,0,0,0,0h6.3
	c0.1,0,0.3,0.1,0.3,0.3v0v1.3h3.9v-1.3c0-0.1,0.1-0.3,0.3-0.3h0h6.3c0.1,0,0.3,0.1,0.3,0.3v0v1.3h3.9v-1.3c0-0.1,0.1-0.3,0.3-0.3
	c0,0,0,0,0,0h6.3c0.1,0,0.3,0.1,0.3,0.3v1.3h3.9v-1.3c0-0.1,0.1-0.3,0.3-0.3h0h6.3c0.1,0,0.3,0.1,0.3,0.3v0v1.3h3.9v-1.3
	c0-0.1,0.1-0.3,0.3-0.3h0h6.3c0.1,0,0.3,0.1,0.3,0.3v0v1.3H270C273.5,512.9,276.3,515.7,276.3,519.2
	C276.3,519.2,276.3,519.2,276.3,519.2z"/>
<rect x="-6.2" y="524.3" fill="#3F3D56" width="343.4" height="0.9"/>
<path fill="#3F3D56" d="M259.5,399.4h-78v-1.6h-35.4v1.6H67.9c-2.9,0-5.3,2.4-5.3,5.3l0,0v106.8c0,2.9,2.4,5.3,5.3,5.3h191.6
	c2.9,0,5.3-2.4,5.3-5.3V404.7C264.8,401.8,262.4,399.4,259.5,399.4z"/>
<circle fill="#FFFFFF" cx="160.1" cy="440.9" r="11.7"/>
<rect x="9.5" y="511.3" fill="#D0CDE1" width="13.1" height="13.1"/>
<rect x="27.7" y="213.8" fill="#198754" width="13.1" height="13.1"/>
<path fill="#3F3D56" d="M8.3,509.3v15.9h15.9v-15.9H8.3z M23.5,524.5H9V510h14.5V524.5z"/>
<rect x="264.8" y="315.4" fill="#198754" width="13.1" height="13.1"/>
<rect x="29.4" y="322.9" fill="#198754" width="13.1" height="13.1"/>
<rect x="629.6" y="234.8" fill="#198754" width="13.1" height="13.1"/>
<rect x="676" y="340.6" fill="#198754" width="13.1" height="13.1"/>
<path fill="#D0CDE1" d="M36,490.8c0.4,15-8.3,20.5-19.3,20.8c-0.3,0-0.5,0-0.8,0c-0.5,0-1,0-1.5,0c-9.9-0.4-17.8-5.7-18.2-19.6
	c-0.4-14.4,17.5-33.1,18.8-34.5l0,0c0.1-0.1,0.1-0.1,0.1-0.1S35.5,475.8,36,490.8z"/>
<path fill="#3F3D56" d="M15.9,509.3l7-10.4l-7,11.5l0,1.2c-0.5,0-1,0-1.5,0l0.3-15l0-0.1l0,0l0-1.4l-7.6-11.1l7.6,10l0,0.3l0.3-11.3
	l-6.6-11.5l6.6,9.5L15,457.4l0-0.1l0,0.1l0.4,18.5l6-7.5l-6,9.1l0.1,10.1l5.5-9.9l-5.5,11.4l0.1,5.6l8-13.8l-8,15.7L15.9,509.3z"/>
<g>
	<g>
		<rect x="802.2" y="509" fill="#D0CDE1" width="13.1" height="13.1"/>
		<path fill="#3F3D56" d="M800.8,507.6v15.9h15.9v-15.9H800.8z M816,522.8h-14.5v-14.5H816V522.8z"/>
	</g>
	<g>
		<path fill="#D0CDE1" d="M828.6,486.8c0.4,15-8.3,20.5-19.3,20.8c-0.3,0-0.5,0-0.8,0c-0.5,0-1,0-1.5,0c-9.9-0.4-17.8-5.7-18.2-19.6
			c-0.4-14.4,17.5-33.1,18.8-34.5l0,0c0.1-0.1,0.1-0.1,0.1-0.1S828.2,471.9,828.6,486.8z"/>
		<path fill="#3F3D56" d="M808.5,505.3l7-10.4l-7,11.5l0,1.2c-0.5,0-1,0-1.5,0l0.3-15l0-0.1l0,0l0-1.4l-7.6-11.1l7.6,10l0,0.3
			l0.3-11.3l-6.6-11.5l6.6,9.5l-0.1-23.5l0-0.1l0,0.1l0.4,18.5l6-7.5l-6,9.1l0.1,10.1l5.5-9.9l-5.5,11.4l0.1,5.6l8-13.8l-8,15.7
			L808.5,505.3z"/>
	</g>
</g>
<circle fill="#2F2E41" cx="588.9" cy="345" r="17"/>
<path fill="#2F2E41" d="M593.6,328.5c9.4,0,17,7.6,17,17c0,2.8-0.7,5.6-2,8c5.8-7.3,4.7-18-2.7-23.8c-7.3-5.8-18-4.7-23.8,2.7
	c-0.6,0.8-1.2,1.6-1.7,2.5C583.6,330.9,588.4,328.5,593.6,328.5z"/>
<circle fill="#2F2E41" cx="557.2" cy="295.2" r="49.8"/>
<path fill="#2F2E41" d="M518.1,264.3c17.8-20.1,48.4-22.4,69-5.2c-0.4-0.4-0.8-0.8-1.2-1.2c-20.6-18.3-52-16.4-70.3,4.2
	c-18.2,20.5-16.4,52,4.1,70.3c0.4,0.4,0.9,0.7,1.3,1.1C501.6,314.9,500.3,284.3,518.1,264.3z"/>
<g>
	
		<image overflow="visible" opacity="0.3" width="109" height="109" xlink:href="618B3CFE.png"  transform="matrix(1 0 0 1 502.4 265.4)">
	</image>
	<g>
		<circle fill="#FFB8B8" cx="556.8" cy="312.5" r="32.1"/>
	</g>
</g>
<polygon fill="#2F2E41" points="529.3,272.4 529.3,304.5 536.8,304.5 546.2,294.3 545,304.5 577.8,304.5 575.8,294.3 579.8,304.5 
	585,304.5 585,272.4 "/>
<ellipse fill="#FFB8B8" cx="524.3" cy="305.7" rx="2.5" ry="4.6"/>
<ellipse fill="#FFB8B8" cx="589.3" cy="305.7" rx="2.5" ry="4.6"/>
<g>
	
		<image overflow="visible" opacity="0.3" width="114" height="113" xlink:href="618B3D02.png"  transform="matrix(1 0 0 1 113.4 216.4)">
	</image>
	<g>
		<circle fill="#A0676A" cx="169.6" cy="265.3" r="34.4"/>
	</g>
</g>
<path fill="#2F2E41" d="M141,232.7l-6.4-2.6c0,0,13.5-14.8,32.2-13.5l-5.3-5.8c0,0,12.9-5.2,24.6,8.4c6.2,7.1,13.3,15.5,17.7,24.9
	h6.9l-2.9,6.3l10.1,6.3l-10.3-1.1c0.6,3.5,0.7,7,0.3,10.5c-0.4,3.5-2.2,6.7-5,8.9l0,0c0,0-8-16.5-8-19.1v6.4c0,0-6.4-5.8-6.4-9.7
	l-3.5,4.5l-1.8-7.1l-21.7,7.1l3.5-5.8l-13.5,1.9l5.3-7.1c0,0-15.2,8.4-15.8,15.5c-0.6,7.1-5,13.8-5,13.8S124,242.4,141,232.7z"/>
<g>
	<polygon fill="#3F3D56" points="620.2,357.1 679,297.8 706.7,297.8 706.7,296.9 678.6,296.9 678.4,297 619.5,356.4 	"/>
	<rect x="740.6" y="273.5" fill="#63FF92" width="68.1" height="6.1"/>
	<path fill="#3F3D56" d="M732.3,283.4h-14.4V269h14.4V283.4z M718.8,282.5h12.6v-12.6h-12.6V282.5z"/>
	<rect x="740.6" y="293.7" fill="#63FF92" width="68.1" height="6.1"/>
	<path fill="#3F3D56" d="M732.3,303.6h-14.4v-14.4h14.4V303.6z M718.8,302.7h12.6v-12.6h-12.6V302.7z"/>
	<path fill="#3F3D56" d="M732.3,323.9h-14.4v-14.4h14.4V323.9z M718.8,322.9h12.6v-12.6h-12.6V322.9z"/>
</g>
<g>
	<polygon fill="#3F3D56" points="224.8,304.4 283.6,245.2 311.3,245.2 311.3,244.2 283.2,244.2 283.1,244.4 224.1,303.8 	"/>
	<rect x="345.2" y="220.9" fill="#63FF92" width="68.1" height="6.1"/>
	<path fill="#3F3D56" d="M336.9,230.8h-14.4v-14.4h14.4V230.8z M323.4,229.8H336v-12.6h-12.6L323.4,229.8z"/>
	<rect x="345.2" y="241.1" fill="#63FF92" width="68.1" height="6.1"/>
	<path fill="#3F3D56" d="M336.9,251h-14.4v-14.4h14.4V251z M323.4,250.1H336v-12.6h-12.6L323.4,250.1z"/>
	<path fill="#3F3D56" d="M336.9,271.2h-14.4v-14.4h14.4V271.2z M323.4,270.3H336v-12.6h-12.6L323.4,270.3z"/>
</g>
<path fill="#CACACA" d="M741.7,460.5L741.7,460.5c-0.8-6.3-1-12.7-0.6-19.1l0.6-10.6l0,0C738.4,438.9,739.2,449.6,741.7,460.5z"/>
<g>
	<path fill="#FA5032" d="M769,465.1v5.9c0,1-0.8,1.8-1.8,1.8h-3c-0.3,0-0.6,0.3-0.6,0.6c0,0,0,0,0,0v48.7c0,1-0.8,1.8-1.8,1.8h-36.2
		c-1,0-1.8-0.8-1.8-1.8v-48.7c0-0.3-0.3-0.6-0.6-0.6h-3.6c-1,0-1.8-0.8-1.8-1.8v-5.9c0-1,0.8-1.8,1.8-1.8c0,0,0,0,0,0h47.5
		C768.2,463.3,769,464.1,769,465.1z"/>
	<rect x="724.3" y="475.1" fill="#3F3D56" width="39.8" height="1.8"/>
	<path fill="#3F3D56" d="M764,501.3c-13.3,5.5-26.8,5.6-40.4,0v-12.5c13.1-4.4,27.3-4.4,40.4,0V501.3z"/>
</g>
<path fill="#CACACA" d="M736.9,461.8L736.9,461.8c-1.6-10.6-2-21.4-1.2-32.1l1.2-17.7l0,0C730,425.6,731.6,443.5,736.9,461.8z"/>
</svg>
