<?xml version="1.0" encoding="utf-8"?>
<!-- Generator: Adobe Illustrator 18.1.1, SVG Export Plug-In . SVG Version: 6.00 Build 0)  -->
<svg version="1.1" xmlns="http://www.w3.org/2000/svg" xmlns:xlink="http://www.w3.org/1999/xlink" x="0px" y="0px"
	 viewBox="-182 146.7 786.8 572.3" enable-background="new -182 146.7 786.8 572.3" xml:space="preserve">
<g id="BG">
	<ellipse fill="#FFFFFF" cx="209" cy="386" rx="374.2" ry="204.7"/>
	<circle fill="#F2F2F2" cx="262.8" cy="247.8" r="18.5"/>
	<path fill="#F2F2F2" d="M405.6,541.4c27.6-21,40.7-56.2,32.5-89.9c-0.2-0.8-0.4-1.7-0.6-2.5c-5.5-20-19-38.9-38.7-45.3
		c-16.5-5.4-34.6-1.2-51.8-3.4c-33.9-4.2-60.1-31.6-78.6-60.3c-18.5-28.7-32.7-60.8-57.2-84.5c-40.5-39.1-106.5-47.5-156.6-22
		C4.3,259-27.6,315.4-26.3,371.6c1.4,56.2,34.7,110,83.2,138.5c17.8,10.5,38.4,17.9,58.9,15.3c17.8-2.3,33.9-11.8,51.6-14.6
		c27.8-4.5,55.5,8.1,79.6,22.8c24.1,14.7,47.3,32,74.7,38.8C348.3,579,381.2,560,405.6,541.4z"/>
	<path fill="#CCCCCC" d="M367.1,234.7c-0.6-0.4-1.2-0.8-1.8-1.2c-17.5-11.2-36.2-20.2-55.7-27l-4.5,62.6h-28.8v-71.8
		c-1.8-0.4-3.6-0.7-5.5-1.1v72.8H165.5v-71c-1.8,0.4-3.7,0.8-5.5,1.3v69.7h-27.9l-4.3-59.7c-20.1,7.7-39.2,17.9-56.9,30.2
		c-0.3,0.2-0.6,0.4-0.9,0.6c-1.5,1.1-3,2.2-4.6,3.3v238.9h82.1l-1.5-20.1l-8-110.3h160.8l-8,110.3l-1.5,20.1h81.2V237.2
		C369.5,236.3,368.3,235.5,367.1,234.7z M160,333.9h-23.2l-4.3-59.2H160V333.9z M270.7,333.9h-38.9v-1.2c0-2.4-1.9-4.3-4.3-4.3
		c0,0,0,0,0,0h-16.9c-2.4,0-4.3,1.9-4.3,4.3v1.2h-40.8v-59.2h105.2V333.9z M300.3,333.9h-24.1v-59.2h28.4L300.3,333.9z"/>
	<path fill="#CCCCCC" d="M-95.1,481.9c6.3,8.6,13,16.6,20.2,24.1l525.7,0.8c7.2-7.5,14-15.5,20.2-24.1L-95.1,481.9z"/>
</g>
<g id="MAN">
	<g>
		<path fill="#3F3D56" d="M50.3,427.4v54.4c0,1.4,1.2,2.6,2.6,2.6h80.7c1.4,0,2.6-1.2,2.6-2.6v-54.4c0-1.4-1.2-2.6-2.6-2.6H52.9
			C51.5,424.8,50.3,425.9,50.3,427.4z"/>
		<path opacity="0.9" fill="#63FF92" d="M52.2,428.1v53.1c0,0.8,0.6,1.4,1.4,1.4h79.3c0.8,0,1.4-0.6,1.4-1.4v-53.1
			c0-0.8-0.6-1.4-1.4-1.4H53.6C52.8,426.7,52.2,427.3,52.2,428.1z"/>
		<path fill="#2F2E41" d="M48.6,492.5c0.3,0.4,0.8,0.6,1.2,0.6h86.4c0.9,0,1.6-0.7,1.6-1.6c0-0.1,0-0.2,0-0.3l-1.3-6.4
			c-0.1-0.5-0.5-1-1-1.2c-0.2-0.1-0.4-0.1-0.6-0.1H51.2c-0.2,0-0.4,0-0.6,0.1c-0.5,0.2-0.9,0.6-1,1.2l-1.3,6.4
			C48.2,491.6,48.3,492.1,48.6,492.5z"/>
		<path fill="#3F3D56" d="M134,486.2h-2c-0.2,0-0.3-0.1-0.3-0.3v-1c0-0.2,0.1-0.3,0.3-0.3h2c0.2,0,0.3,0.1,0.3,0.3v1
			C134.3,486.1,134.2,486.2,134,486.2z"/>
		<path fill="#3F3D56" d="M128.7,486.2h-2c-0.2,0-0.3-0.1-0.3-0.3v-1c0-0.2,0.1-0.3,0.3-0.3h2c0.2,0,0.3,0.1,0.3,0.3v1
			C129,486.1,128.8,486.2,128.7,486.2z"/>
		<path fill="#3F3D56" d="M123.3,486.2h-2c-0.2,0-0.3-0.1-0.3-0.3v-1c0-0.2,0.1-0.3,0.3-0.3h2c0.2,0,0.3,0.1,0.3,0.3v1
			C123.7,486.1,123.5,486.2,123.3,486.2z"/>
		<path fill="#3F3D56" d="M118,486.2h-2c-0.2,0-0.3-0.1-0.3-0.3v-1c0-0.2,0.1-0.3,0.3-0.3h2c0.2,0,0.3,0.1,0.3,0.3v1
			C118.3,486.1,118.2,486.2,118,486.2z"/>
		<path fill="#3F3D56" d="M112.7,486.2h-2c-0.2,0-0.3-0.1-0.3-0.3v-1c0-0.2,0.1-0.3,0.3-0.3h2c0.2,0,0.3,0.1,0.3,0.3v1
			C113,486.1,112.9,486.2,112.7,486.2z"/>
		<path fill="#3F3D56" d="M107.4,486.2h-2c-0.2,0-0.3-0.1-0.3-0.3v-1c0-0.2,0.1-0.3,0.3-0.3h2c0.2,0,0.3,0.1,0.3,0.3v1
			C107.7,486.1,107.5,486.2,107.4,486.2z"/>
		<path fill="#3F3D56" d="M102.1,486.2h-2c-0.2,0-0.3-0.1-0.3-0.3v-1c0-0.2,0.1-0.3,0.3-0.3h2c0.2,0,0.3,0.1,0.3,0.3v1
			C102.4,486.1,102.2,486.2,102.1,486.2z"/>
		<path fill="#3F3D56" d="M96.7,486.2h-2c-0.2,0-0.3-0.1-0.3-0.3v-1c0-0.2,0.1-0.3,0.3-0.3h2c0.2,0,0.3,0.1,0.3,0.3v1
			C97,486.1,96.9,486.2,96.7,486.2z"/>
		<path fill="#3F3D56" d="M91.4,486.2h-2c-0.2,0-0.3-0.1-0.3-0.3v-1c0-0.2,0.1-0.3,0.3-0.3h2c0.2,0,0.3,0.1,0.3,0.3v1
			C91.7,486.1,91.6,486.2,91.4,486.2z"/>
		<path fill="#3F3D56" d="M86.1,486.2h-2c-0.2,0-0.3-0.1-0.3-0.3v-1c0-0.2,0.1-0.3,0.3-0.3h2c0.2,0,0.3,0.1,0.3,0.3v1
			C86.4,486.1,86.3,486.2,86.1,486.2z"/>
		<path fill="#3F3D56" d="M80.8,486.2h-2c-0.2,0-0.3-0.1-0.3-0.3v-1c0-0.2,0.1-0.3,0.3-0.3h2c0.2,0,0.3,0.1,0.3,0.3v1
			C81.1,486.1,80.9,486.2,80.8,486.2z"/>
		<path fill="#3F3D56" d="M75.4,486.2h-2c-0.2,0-0.3-0.1-0.3-0.3v-1c0-0.2,0.1-0.3,0.3-0.3h2c0.2,0,0.3,0.1,0.3,0.3v1
			C75.8,486.1,75.6,486.2,75.4,486.2z"/>
		<path fill="#3F3D56" d="M70.1,486.2h-2c-0.2,0-0.3-0.1-0.3-0.3v-1c0-0.2,0.1-0.3,0.3-0.3h2c0.2,0,0.3,0.1,0.3,0.3v1
			C70.4,486.1,70.3,486.2,70.1,486.2z"/>
		<path fill="#3F3D56" d="M64.8,486.2h-2c-0.2,0-0.3-0.1-0.3-0.3v-1c0-0.2,0.1-0.3,0.3-0.3h2c0.2,0,0.3,0.1,0.3,0.3v1
			C65.1,486.1,65,486.2,64.8,486.2z"/>
		<path fill="#3F3D56" d="M59.5,486.2h-2c-0.2,0-0.3-0.1-0.3-0.3v-1c0-0.2,0.1-0.3,0.3-0.3h2c0.2,0,0.3,0.1,0.3,0.3v1
			C59.8,486.1,59.6,486.2,59.5,486.2z"/>
		<path fill="#3F3D56" d="M54.2,486.2h-2c-0.2,0-0.3-0.1-0.3-0.3v-1c0-0.2,0.1-0.3,0.3-0.3h2c0.2,0,0.3,0.1,0.3,0.3v1
			C54.5,486.1,54.3,486.2,54.2,486.2z"/>
		<path fill="#3F3D56" d="M134,488.9h-2c-0.2,0-0.3-0.1-0.3-0.3v-1c0-0.2,0.1-0.3,0.3-0.3h2c0.2,0,0.3,0.1,0.3,0.3v1
			C134.4,488.8,134.2,488.9,134,488.9z"/>
		<path fill="#3F3D56" d="M128.7,488.9h-2c-0.2,0-0.3-0.1-0.3-0.3v-1c0-0.2,0.1-0.3,0.3-0.3h2c0.2,0,0.3,0.1,0.3,0.3v1
			C129,488.8,128.9,488.9,128.7,488.9z"/>
		<path fill="#3F3D56" d="M123.4,488.9h-2c-0.2,0-0.3-0.1-0.3-0.3v-1c0-0.2,0.1-0.3,0.3-0.3h2c0.2,0,0.3,0.1,0.3,0.3v1
			C123.7,488.8,123.6,488.9,123.4,488.9z"/>
		<path fill="#3F3D56" d="M118.1,488.9h-2c-0.2,0-0.3-0.1-0.3-0.3v-1c0-0.2,0.1-0.3,0.3-0.3h2c0.2,0,0.3,0.1,0.3,0.3v1
			C118.4,488.8,118.3,488.9,118.1,488.9z"/>
		<path fill="#3F3D56" d="M112.8,488.9h-2c-0.2,0-0.3-0.1-0.3-0.3v-1c0-0.2,0.1-0.3,0.3-0.3h2c0.2,0,0.3,0.1,0.3,0.3v1
			C113.1,488.8,112.9,488.9,112.8,488.9z"/>
		<path fill="#3F3D56" d="M107.4,488.9h-2c-0.2,0-0.3-0.1-0.3-0.3v-1c0-0.2,0.1-0.3,0.3-0.3h2c0.2,0,0.3,0.1,0.3,0.3v1
			C107.7,488.8,107.6,488.9,107.4,488.9z"/>
		<path fill="#3F3D56" d="M102.1,488.9h-2c-0.2,0-0.3-0.1-0.3-0.3v-1c0-0.2,0.1-0.3,0.3-0.3h2c0.2,0,0.3,0.1,0.3,0.3v1
			C102.4,488.8,102.3,488.9,102.1,488.9z"/>
		<path fill="#3F3D56" d="M96.8,488.9h-2c-0.2,0-0.3-0.1-0.3-0.3v-1c0-0.2,0.1-0.3,0.3-0.3h2c0.2,0,0.3,0.1,0.3,0.3v1
			C97.1,488.8,97,488.9,96.8,488.9z"/>
		<path fill="#3F3D56" d="M91.5,488.9h-2c-0.2,0-0.3-0.1-0.3-0.3v-1c0-0.2,0.1-0.3,0.3-0.3h2c0.2,0,0.3,0.1,0.3,0.3v1
			C91.8,488.8,91.6,488.9,91.5,488.9z"/>
		<path fill="#3F3D56" d="M86.1,488.9h-2c-0.2,0-0.3-0.1-0.3-0.3v-1c0-0.2,0.1-0.3,0.3-0.3h2c0.2,0,0.3,0.1,0.3,0.3v1
			C86.5,488.8,86.3,488.9,86.1,488.9z"/>
		<path fill="#3F3D56" d="M80.8,488.9h-2c-0.2,0-0.3-0.1-0.3-0.3v-1c0-0.2,0.1-0.3,0.3-0.3h2c0.2,0,0.3,0.1,0.3,0.3v1
			C81.1,488.8,81,488.9,80.8,488.9z"/>
		<path fill="#3F3D56" d="M75.5,488.9h-2c-0.2,0-0.3-0.1-0.3-0.3v-1c0-0.2,0.1-0.3,0.3-0.3h2c0.2,0,0.3,0.1,0.3,0.3v1
			C75.8,488.8,75.7,488.9,75.5,488.9z"/>
		<path fill="#3F3D56" d="M70.2,488.9h-2c-0.2,0-0.3-0.1-0.3-0.3v-1c0-0.2,0.1-0.3,0.3-0.3h2c0.2,0,0.3,0.1,0.3,0.3v1
			C70.5,488.8,70.4,488.9,70.2,488.9z"/>
		<path fill="#3F3D56" d="M64.9,488.9h-2c-0.2,0-0.3-0.1-0.3-0.3v-1c0-0.2,0.1-0.3,0.3-0.3h2c0.2,0,0.3,0.1,0.3,0.3v1
			C65.2,488.8,65,488.9,64.9,488.9z"/>
		<path fill="#3F3D56" d="M59.5,488.9h-2c-0.2,0-0.3-0.1-0.3-0.3v-1c0-0.2,0.1-0.3,0.3-0.3h2c0.2,0,0.3,0.1,0.3,0.3v1
			C59.8,488.8,59.7,488.9,59.5,488.9z"/>
		<path fill="#3F3D56" d="M54.2,488.9h-2c-0.2,0-0.3-0.1-0.3-0.3v-1c0-0.2,0.1-0.3,0.3-0.3h2c0.2,0,0.3,0.1,0.3,0.3v1
			C54.5,488.8,54.4,488.9,54.2,488.9z"/>
		<path fill="#3F3D56" d="M108.5,492.1H87.8c-0.2,0-0.3-0.1-0.3-0.3v-1c0-0.2,0.1-0.3,0.3-0.3h20.7c0.2,0,0.3,0.1,0.3,0.3v1
			C108.8,492,108.7,492.1,108.5,492.1z"/>
		<path fill="#FFFFFF" d="M64.1,438.3h1.8c0.5,0,1,0.4,1,1v0c0,0.5-0.4,1-1,1h-1.8c-0.5,0-1-0.4-1-1v0
			C63.1,438.7,63.6,438.3,64.1,438.3z"/>
		<path fill="#FFFFFF" d="M84.8,438.3h1.8c0.5,0,1,0.4,1,1v0c0,0.5-0.4,1-1,1h-1.8c-0.5,0-1-0.4-1-1v0
			C83.8,438.7,84.2,438.3,84.8,438.3z"/>
		<path fill="#FFFFFF" d="M90.6,438.3h1.8c0.5,0,1,0.4,1,1v0c0,0.5-0.4,1-1,1h-1.8c-0.5,0-1-0.4-1-1v0
			C89.7,438.7,90.1,438.3,90.6,438.3z"/>
		<path fill="#FFFFFF" d="M69.8,438.1H81c0.5,0,1,0.4,1,1v0c0,0.5-0.4,1-1,1H69.8c-0.5,0-1-0.4-1-1v0
			C68.8,438.6,69.2,438.1,69.8,438.1z"/>
		<path fill="#FFFFFF" d="M97.3,438.1h11.2c0.5,0,1,0.4,1,1v0c0,0.5-0.4,1-1,1H97.3c-0.5,0-1-0.4-1-1v0
			C96.3,438.6,96.8,438.1,97.3,438.1z"/>
		<path fill="#FFFFFF" d="M69.6,442.8h1.8c0.5,0,1,0.4,1,1v0c0,0.5-0.4,1-1,1h-1.8c-0.5,0-1-0.4-1-1v0
			C68.6,443.2,69.1,442.8,69.6,442.8z"/>
		<path fill="#FFFFFF" d="M90.3,442.8h1.8c0.5,0,1,0.4,1,1v0c0,0.5-0.4,1-1,1h-1.8c-0.5,0-1-0.4-1-1v0
			C89.3,443.2,89.8,442.8,90.3,442.8z"/>
		<path fill="#FFFFFF" d="M96.2,442.8H98c0.5,0,1,0.4,1,1v0c0,0.5-0.4,1-1,1h-1.8c-0.5,0-1-0.4-1-1v0
			C95.2,443.2,95.6,442.8,96.2,442.8z"/>
		<path fill="#FFFFFF" d="M75.3,442.6h11.2c0.5,0,1,0.4,1,1v0c0,0.5-0.4,1-1,1H75.3c-0.5,0-1-0.4-1-1v0
			C74.3,443,74.7,442.6,75.3,442.6z"/>
		<path fill="#FFFFFF" d="M102.8,442.6H114c0.5,0,1,0.4,1,1v0c0,0.5-0.4,1-1,1h-11.2c-0.5,0-1-0.4-1-1v0
			C101.8,443,102.3,442.6,102.8,442.6z"/>
		<path fill="#FFFFFF" d="M75.2,447.2H77c0.5,0,1,0.4,1,1l0,0c0,0.5-0.4,1-1,1h-1.8c-0.5,0-1-0.4-1-1l0,0
			C74.2,447.7,74.6,447.2,75.2,447.2z"/>
		<path fill="#FFFFFF" d="M95.8,447.2h1.8c0.5,0,1,0.4,1,1l0,0c0,0.5-0.4,1-1,1h-1.8c-0.5,0-1-0.4-1-1l0,0
			C94.8,447.7,95.3,447.2,95.8,447.2z"/>
		<path fill="#FFFFFF" d="M101.7,447.2h1.8c0.5,0,1,0.4,1,1l0,0c0,0.5-0.4,1-1,1h-1.8c-0.5,0-1-0.4-1-1l0,0
			C100.7,447.7,101.1,447.2,101.7,447.2z"/>
		<path fill="#FFFFFF" d="M80.8,447.1H92c0.5,0,1,0.4,1,1v0c0,0.5-0.4,1-1,1H80.8c-0.5,0-1-0.4-1-1v0
			C79.8,447.5,80.2,447.1,80.8,447.1z"/>
		<path fill="#FFFFFF" d="M108.3,447.1h11.2c0.5,0,1,0.4,1,1v0c0,0.5-0.4,1-1,1h-11.2c-0.5,0-1-0.4-1-1v0
			C107.3,447.5,107.8,447.1,108.3,447.1z"/>
		<path fill="#FFFFFF" d="M80.7,451.7h1.8c0.5,0,1,0.4,1,1l0,0c0,0.5-0.4,1-1,1h-1.8c-0.5,0-1-0.4-1-1l0,0
			C79.7,452.2,80.1,451.7,80.7,451.7z"/>
		<path fill="#FFFFFF" d="M101.3,451.7h1.8c0.5,0,1,0.4,1,1l0,0c0,0.5-0.4,1-1,1h-1.8c-0.5,0-1-0.4-1-1l0,0
			C100.3,452.2,100.8,451.7,101.3,451.7z"/>
		<path fill="#FFFFFF" d="M107.2,451.7h1.8c0.5,0,1,0.4,1,1l0,0c0,0.5-0.4,1-1,1h-1.8c-0.5,0-1-0.4-1-1l0,0
			C106.2,452.2,106.6,451.7,107.2,451.7z"/>
		<path fill="#FFFFFF" d="M86.3,451.5h11.2c0.5,0,1,0.4,1,1v0c0,0.5-0.4,1-1,1H86.3c-0.5,0-1-0.4-1-1v0
			C85.3,452,85.7,451.5,86.3,451.5z"/>
		<path fill="#FFFFFF" d="M84.8,469.5h1.8c0.5,0,1,0.4,1,1l0,0c0,0.5-0.4,1-1,1h-1.8c-0.5,0-1-0.4-1-1l0,0
			C83.8,470,84.2,469.5,84.8,469.5z"/>
		<path fill="#FFFFFF" d="M90.6,469.5h1.8c0.5,0,1,0.4,1,1l0,0c0,0.5-0.4,1-1,1h-1.8c-0.5,0-1-0.4-1-1l0,0
			C89.7,470,90.1,469.5,90.6,469.5z"/>
		<path fill="#FFFFFF" d="M97.3,469.7h11.2c0.5,0,1,0.4,1,1l0,0c0,0.5-0.4,1-1,1H97.3c-0.5,0-1-0.4-1-1l0,0
			C96.3,470.1,96.8,469.7,97.3,469.7z"/>
		<path fill="#FFFFFF" d="M64.1,469.5h1.8c0.5,0,1,0.4,1,1l0,0c0,0.5-0.4,1-1,1h-1.8c-0.5,0-1-0.4-1-1l0,0
			C63.1,470,63.6,469.5,64.1,469.5z"/>
		<path fill="#FFFFFF" d="M69.8,469.7H81c0.5,0,1,0.4,1,1l0,0c0,0.5-0.4,1-1,1H69.8c-0.5,0-1-0.4-1-1l0,0
			C68.8,470.1,69.2,469.7,69.8,469.7z"/>
		<path fill="#FFFFFF" d="M69.6,465h1.8c0.5,0,1,0.4,1,1l0,0c0,0.5-0.4,1-1,1h-1.8c-0.5,0-1-0.4-1-1l0,0
			C68.6,465.5,69.1,465,69.6,465z"/>
		<path fill="#FFFFFF" d="M90.3,465h1.8c0.5,0,1,0.4,1,1l0,0c0,0.5-0.4,1-1,1h-1.8c-0.5,0-1-0.4-1-1l0,0
			C89.3,465.5,89.8,465,90.3,465z"/>
		<path fill="#FFFFFF" d="M96.2,465H98c0.5,0,1,0.4,1,1l0,0c0,0.5-0.4,1-1,1h-1.8c-0.5,0-1-0.4-1-1l0,0
			C95.2,465.5,95.6,465,96.2,465z"/>
		<path fill="#FFFFFF" d="M75.3,465.2h11.2c0.5,0,1,0.4,1,1v0c0,0.5-0.4,1-1,1H75.3c-0.5,0-1-0.4-1-1v0
			C74.3,465.6,74.7,465.2,75.3,465.2z"/>
		<path fill="#FFFFFF" d="M75.2,460.6H77c0.5,0,1,0.4,1,1v0c0,0.5-0.4,1-1,1h-1.8c-0.5,0-1-0.4-1-1v0
			C74.2,461,74.6,460.6,75.2,460.6z"/>
		<path fill="#FFFFFF" d="M95.8,460.6h1.8c0.5,0,1,0.4,1,1v0c0,0.5-0.4,1-1,1h-1.8c-0.5,0-1-0.4-1-1v0
			C94.8,461,95.3,460.6,95.8,460.6z"/>
		<path fill="#FFFFFF" d="M101.7,460.6h1.8c0.5,0,1,0.4,1,1v0c0,0.5-0.4,1-1,1h-1.8c-0.5,0-1-0.4-1-1v0
			C100.7,461,101.1,460.6,101.7,460.6z"/>
		<path fill="#FFFFFF" d="M80.8,460.7H92c0.5,0,1,0.4,1,1l0,0c0,0.5-0.4,1-1,1H80.8c-0.5,0-1-0.4-1-1l0,0
			C79.8,461.2,80.2,460.7,80.8,460.7z"/>
		<path fill="#FFFFFF" d="M80.7,456.1h1.8c0.5,0,1,0.4,1,1v0c0,0.5-0.4,1-1,1h-1.8c-0.5,0-1-0.4-1-1v0
			C79.7,456.5,80.1,456.1,80.7,456.1z"/>
		<path fill="#FFFFFF" d="M101.3,456.1h1.8c0.5,0,1,0.4,1,1v0c0,0.5-0.4,1-1,1h-1.8c-0.5,0-1-0.4-1-1v0
			C100.3,456.5,100.8,456.1,101.3,456.1z"/>
		<path fill="#FFFFFF" d="M107.2,456.1h1.8c0.5,0,1,0.4,1,1v0c0,0.5-0.4,1-1,1h-1.8c-0.5,0-1-0.4-1-1v0
			C106.2,456.5,106.6,456.1,107.2,456.1z"/>
		<path fill="#FFFFFF" d="M86.3,456.2h11.2c0.5,0,1,0.4,1,1l0,0c0,0.5-0.4,1-1,1H86.3c-0.5,0-1-0.4-1-1l0,0
			C85.3,456.7,85.7,456.2,86.3,456.2z"/>
	</g>
	<g>
		<path fill="#2F2E41" d="M142.2,495.2c0.5,1.4,1.8,2.4,3.3,2.3l14.3-0.4c1.5,0,2.8-1.1,3.2-2.5l2-21.6c0.7,0.3,1.5,0.5,2.3,0.5
			c2.9-0.1,5.2-2.5,5.1-5.3c-0.1-2.9-2.5-5.2-5.3-5.1c-0.3,0-0.6,0-0.9,0.1c-0.7-0.7-1.6-1.1-2.6-1.1l-22,0.6c-0.2,0-0.4,0-0.5,0.1
			c-1.9,0.3-3.1,2.1-2.7,4c0,0.2,0.1,0.3,0.1,0.5L142.2,495.2z M165.5,471.5l1.4-5.2c0.2-0.6,0.2-1.2,0-1.8c0.1,0,0.1,0,0.2,0
			c2.1,0,3.8,1.6,3.8,3.7c0,2.1-1.6,3.8-3.6,3.8C166.7,472,166,471.8,165.5,471.5z"/>
		<path fill="#3F3D56" d="M141,462.6c0.5,2.7,5.7,4.6,12.1,4.2c5.8-0.3,10.6-2.3,11.5-4.7c-0.3-0.1-0.7-0.1-1-0.1l-22,0.6
			C141.3,462.6,141.2,462.6,141,462.6z"/>
		<path fill="#63FF92" d="M154.2,483.3C154.2,483.3,154.3,483.2,154.2,483.3l3.2-2.1c0.1-0.1,0.2-0.2,0.1-0.4c0,0,0-0.1-0.1-0.1
			l-3.2-2.1c-0.1-0.1-0.3,0-0.4,0.1c-0.1,0.1,0,0.3,0.1,0.4l2.9,1.9l-2.8,1.8c-0.1,0.1-0.2,0.2-0.1,0.4
			C154,483.2,154.1,483.3,154.2,483.3L154.2,483.3z"/>
		<path fill="#63FF92" d="M149.3,483.5c0.1,0,0.2-0.2,0.2-0.3c0-0.1-0.1-0.1-0.1-0.2l-2.9-1.6l2.8-2.1c0.1-0.1,0.1-0.3,0.1-0.4
			c-0.1-0.1-0.3-0.1-0.4-0.1l-3.1,2.3c-0.1,0.1-0.1,0.3-0.1,0.4c0,0,0.1,0.1,0.1,0.1l3.2,1.8C149.2,483.5,149.2,483.5,149.3,483.5z"
			/>
		<path fill="#63FF92" d="M153.9,485C153.9,485,154,485,153.9,485c0.2-0.1,0.2-0.3,0.2-0.4c0,0,0,0,0,0l-4.4-7.2
			c-0.1-0.1-0.2-0.2-0.4-0.1c-0.1,0.1-0.2,0.2-0.1,0.4l4.4,7.2C153.7,485,153.8,485.1,153.9,485z"/>
	</g>
	<g>
		<path fill="#FFB6B6" d="M89.1,531.9l-8.5-13.4l26.6-21.2l11-12.2c4.5-5,12.2-5.4,17.2-0.9c1.6,1.4,2.7,3.2,3.4,5.2l0,0
			c2.1,6.2-1.2,13-7.4,15.2l-17.4,6.4L89.1,531.9z"/>
		<path fill="#64C5C7" d="M57.1,502l-1.8,11.6c0,0,0.4,4.1,1,10.7v0c0.1,0.9,0.2,1.8,0.3,2.8c0.7,8.1,1.6,6.4,2.5,12.4
			c0.2,1.6,0.4,3.8,0.7,6.8c0.2,2.4-2.8,4.5-2.6,6.9c0.2,3.1,3.5,6.3,3.6,9.2c0.2,4.4,0.4,8.5,0.5,12.3c-1.1,0.4-2.2,0.7-3.3,1
			c-1.3,0.4-2.6,0.8-3.9,1.1c-1.4,0.4-2.7,0.7-4.1,1.1c-10.3,2.5-20.9,3.9-31.5,4.2c-1.4,0-2.9,0.1-4.3,0.1c-0.7,0-1.4,0-2.1,0
			c-0.2,0-0.4,0-0.7,0c-0.6,0-1.3,0-2-0.1c-12.8-0.4-25.5-2.4-37.8-6l-0.5-0.1c-0.8-0.3-1.6-0.5-2.4-0.7c-3.7-1.2-7.3-2.5-10.9-3.9
			c-0.2-0.1-0.4-0.2-0.5-0.2c2.8-3.5,6.1-7.3,8.9-11c2.2-2.8,3.6-2.3,4.5-0.9l-0.5-1.8l1.8-4.6l-0.7-34.1v0l-0.1-4.2l-5-15.3
			l-3.9-12l-0.6-1.8c0,0,0,0,0,0l-4.2-12.8l-4.1-12.6h0v0l-0.1-0.4l38.1-24.4l5.8-8c1.3-1.8,3.4-2.9,5.7-2.9l21.3,0.1
			c2.8,0,5.4,1.8,6.4,4.4l1.8,4.5l32.3,16l0.5,0.3l0.5,0.8v0L59.2,489L57.1,502L57.1,502z"/>
		<path fill="#64C5C7" d="M-24,508.5l-4.8,10.3l-3.3,7l-5.7,29.6l-2.8,3l-2.4-10.7l-22.2,5l0,0l0,0c-0.1-0.3-0.2-0.9-0.2-1.3
			c0-0.4,0-0.5,0.1,0c0,0.2,0.1,0.5,0.2,0.9c0-0.1,0-0.1,0-0.2c0-0.2,0-0.4-0.1-0.7c0,0,0,0,0,0c-0.7-6.6-1.1-13.6-1.4-20.6
			c-0.2-4-0.3-8.1-0.4-12c0.7-8.9,1.8-18,3.7-26.1c0.1-0.6,0.3-1.2,0.4-1.7c0.4-1.6,0.8-3.2,1.3-4.7c0.2-0.8,0.5-1.6,0.8-2.3
			c0.3-0.8,0.6-1.6,0.9-2.4c1.1-3,2.6-5.8,4.5-8.3c0.2-0.2,0.3-0.4,0.4-0.6c3.4-4.7,5.5-9.3,8.5-12.6v0c0,0,0,0,0,0c0,0,0,0,0,0
			l20.6-10.9l0.9,24.8l0.4,10.5l0.1,2.2l0.2,5.2l0.3,9.2l0.1,1.6L-24,508.5z"/>
		<path fill="#64C5C7" d="M95.1,551.2c0,0.1,0,0.1,0,0.2c0,0.2,0,0.3,0,0.5c-0.1,1.6-0.2,2.9-0.4,3.7c0,0.2-0.1,0.4-0.1,0.5
			c0,0,0,0,0,0c0,0.1,0,0.2,0,0.2c0,0.2-0.1,0.4-0.1,0.6v0l-3.3-10.6l-13.9,2.9l-6.7,1.4l-1.2,0.2l-2.4,10.6l-2.8-3l-3.4-18.1
			l-2.2-11.6l-2.1-4.5l0,0l-6-12.9l2.4-10.7l11.6-51.4l0.5,0.3l0.5,0.8l0,0L73,463c0,0,0,0,0,0c3.1,3.4,5.3,8.3,8.9,13.2
			c5.4,7.4,8.5,19.8,10.3,33c0.3,2.4,0.6,4.8,0.8,7.2c0,0,0,0,0,0c0.4,3.9,0.6,7.7,0.8,11.5c0.4,8.2,0.5,15.9,0.4,22.1
			C94.3,550.4,94.6,550.7,95.1,551.2C95,551.1,95.1,551.1,95.1,551.2z"/>
		<circle id="a657ec4b-47ce-4d2a-9c58-81a811696ca9" fill="#FFB6B6" cx="13.8" cy="397" r="28.3"/>
		<path fill="#2F2E41" d="M52.1,377.3c-0.4-0.5-1.1-0.7-1.7-0.8l0.4-1.2c0.4-1.2-0.2-2.5-1.3-2.9c-0.4-0.1-0.8-0.2-1.2-0.1l-1.6,0.3
			l0.1-1c0.2-1.2-0.7-2.4-1.9-2.5c-0.4-0.1-0.8,0-1.1,0.1c-0.7,0.3-1.4,0.2-2.1-0.1c-0.6-0.3-1.1-1-1.2-1.7l-0.5-2.6l-0.1-0.1
			c-2.6-4.4-7.7-7.6-13.9-8.7c-5.5-1-11.2-0.5-16.6,0c-2.2,0.2-4.6,0.4-6.6,1.7c-1.7,1.1-3.2,3.2-2.9,5.4c-5.4-1.6-11.1,1.6-14,5.8
			c-3.4,4.9-3.9,11.1-4,15.9c-0.2,11.4,2.1,20.8,7,27.8c0.4,0.5,0.4,1.6,1.1,1.9l-0.1-0.2c0.8,0.4,1.6,1,1.3,1.7
			c-0.9,2,4.8,6.3,8.9,7.7c7.3,2.6,17.1,2.4,23.9,1.4l0.2-1.6c2.5-0.3,4.2-1,4.7-2c0.9-0.7,1.6-1.4,2.2-2l0,0c0,0,0,0,0.1,0
			c3.1-3,3.8-4.7,4.1-7.2c0.3-2.5-0.2-5.1-0.8-7.4c11.9,1.8-4.7-12.7,6.4-15.5c0.1,0,0.3-0.1,0.4-0.1c0.3-0.1,0.6-0.2,1-0.2
			c1.5-0.4,2.9-1,4.3-1.8c3.1-1.9,4.1-4.4,5.7-7.2C52.8,379,52.7,378,52.1,377.3z"/>
		<g>
			<path fill="#2F2E41" d="M96.3,520.9c0,0.1,0,0.3,0,0.4c0,0.9,0,2.2-0.1,3.6c0,0.2,0,0.5,0,0.7c0,0.1,0,0.3,0,0.4c0,0.3,0,0.6,0,1
				c0,0.7,0,1.3,0,1.9c0,0.2,0,0.4,0,0.6c0,0.1,0,0.2,0,0.3c0,0.8,0,1.5-0.1,2.3c0,0.3,0,0.5,0,0.8c0,0.4,0,0.8,0,1.2
				c0,0.2,0,0.4,0,0.6c-0.2,4-0.4,8.7-0.8,16.1c0,0.1,0,0.2,0,0.3c0,0.1,0,0.1,0,0.2c0,0.2,0,0.3,0,0.5c-0.1,1.6-0.2,2.9-0.4,3.7
				c0,0.2-0.1,0.4-0.1,0.5c0,0,0,0,0,0c0,0.1,0,0.2,0,0.2c0,0.2-0.1,0.4-0.1,0.6v0c-0.1,0.3-0.1,0.4-0.2,0.5c0,0.1-0.1,0.1-0.1,0.1
				c-0.2,0.2-0.4,0.1-0.6-0.1c-0.1-0.1-0.1-0.1-0.2-0.2c0,0-0.1-0.1-0.1-0.1c-0.1-0.1-0.1-0.2-0.2-0.3c-0.2-0.3-0.5-0.6-0.7-0.6
				c0,0-0.1,0-0.1,0c0,0-0.1,0-0.2,0.1c-0.1,0.1-0.3,0.4-0.4,0.8c0,0.1-0.1,0.2-0.1,0.3c-0.1,0.2-0.1,0.5-0.2,0.8
				c-0.2,1.2-0.6,2.4-1.1,3.5c-0.7,0.4-1.5,0.8-2.2,1.3c-2.1,1.2-4.3,2.3-6.5,3.4c-1.2,0.6-2.5,1.2-3.7,1.8
				c-0.2,0.1-0.4,0.2-0.6,0.3c-5.3,2.4-10.7,4.5-16.2,6.3c-1.1,0.4-2.2,0.7-3.3,1c-1.3,0.4-2.6,0.8-3.9,1.1
				c-1.4,0.4-2.7,0.7-4.1,1.1c-10.3,2.5-20.9,3.9-31.5,4.2c-1.4,0-2.9,0.1-4.3,0.1c-0.7,0-1.4,0-2.1,0c-0.2,0-0.4,0-0.7,0
				c-0.6,0-1.3,0-2-0.1c-12.8-0.4-25.5-2.4-37.8-6l-0.5-0.1c-0.8-0.3-1.6-0.5-2.4-0.7c-3.7-1.2-7.3-2.5-10.9-3.9
				c-0.2-0.1-0.4-0.2-0.5-0.2c-2.6-1-5.1-2.1-7.6-3.3c0,0,0,0-0.1,0c-0.6-0.3-1.1-0.5-1.7-0.8c-0.1,0-0.1-0.1-0.2-0.1
				c-2.1-1-4.2-2.1-6.2-3.2c-1.7-3.9-4.1-4.7-5.6-8.1c-0.4-0.9-0.7-1.9-0.9-2.9c0-0.1,0-0.2-0.1-0.3c0,0,0,0,0,0c0,0.1,0,0.2,0,0.3
				c0,0.2,0,0.2,0,0c-0.1-0.3-0.2-0.9-0.2-1.3c0-0.4,0-0.5,0.1,0c0,0.2,0.1,0.5,0.2,0.9c0-0.1,0-0.1,0-0.2c0-0.2,0-0.4-0.1-0.7
				c0,0,0,0,0,0c-0.7-6.6-1.1-13.6-1.4-20.6c-0.2-4-0.3-8.1-0.4-12c-0.3-8.6-0.4-17-0.8-24.6c0-0.4,0-0.7,0-1c0-0.5-0.1-1-0.1-1.4
				c0-0.3,0-0.5,0-0.8c0-0.3,0-0.7-0.1-1c0-0.1,0.1-0.2,0.1-0.3c0,0,0,0,0,0c0,0,0,0,0-0.1c0,0,0-0.1,0.1-0.1c0,0,0-0.1,0.1-0.1
				c0,0,0,0,0,0s0,0,0,0c0,0,0-0.1,0.1-0.1c0,0,0,0,0-0.1c0,0,0-0.1,0.1-0.1c0,0,0,0,0.1-0.1c0,0,0,0,0,0c0,0,0,0,0,0h0
				c0,0,0,0,0.1-0.1c0,0,0,0,0,0c0,0,0.1-0.1,0.1-0.1c0.1-0.1,0.2-0.2,0.3-0.3c0.1-0.1,0.2-0.2,0.3-0.2c0,0,0.1,0,0.1-0.1
				c0,0,0.1-0.1,0.1-0.1c0.6-0.3,1.2-0.6,1.8-0.8c0.2-0.1,0.4-0.1,0.7-0.2c0,0,0.1,0,0.1,0c0,0,0.1,0,0.1,0c0.1,0,0.2-0.1,0.4-0.1
				c0.3-0.1,0.5-0.2,0.8-0.2c0.2-0.1,0.5-0.1,0.7-0.2c0,0,0.1,0,0.1,0c0.1,0,0.3-0.1,0.5-0.1c0.2,0,0.5-0.1,0.7-0.1
				c0.2,0,0.4-0.1,0.6-0.1c1.7-0.3,3.6-0.5,5.6-0.6c0.2,0,0.4,0,0.6,0c0.1,0,0.2,0,0.3,0c0,0,0,0,0,0c0.1,0,0.2,0,0.3,0
				c0.1,0,0.2,0,0.3,0s0.2,0,0.3,0c0.2,0,0.4,0,0.6,0c0.6,0,1.1,0,1.8-0.1c1.2,0,2.4,0,3.7,0c0.3,0,0.5,0,0.8,0c0.3,0,0.5,0,0.8,0
				c0.2,0,0.4,0,0.7,0c0.2,0,0.4,0,0.7,0c0.5,0,0.9,0,1.3,0.1h0.2c0.4,0,0.8,0,1.2,0c0.4,0,0.8,0,1.2,0.1c0.4,0,0.7,0,1.1,0.1
				c0,0,0,0,0,0c0.2,0,0.4,0,0.6,0c0.5,0,1.1,0.1,1.7,0.1c0.4,0,0.9,0,1.3,0.1c0.4,0,0.7,0.1,1.1,0.1c0.2,0,0.4,0,0.6,0
				c0.3,0,0.5,0,0.8,0.1c0.6,0,1.2,0.1,1.9,0.1c0.3,0,0.6,0,0.9,0.1c0.3,0,0.6,0.1,1,0.1c0.6,0,1.3,0.1,1.9,0.2c0.1,0,0.1,0,0.2,0
				c0.2,0,0.4,0,0.6,0.1c0.2,0,0.3,0,0.5,0.1c0.2,0,0.5,0,0.7,0.1c0,0,0,0,0.1,0c2.1,0.2,4.2,0.4,6.3,0.7c0.4,0,0.8,0.1,1.1,0.1
				c0.2,0,0.3,0,0.4,0.1c0.6,0.1,1.2,0.1,1.8,0.2c0.1,0,0.2,0,0.4,0c0.5,0.1,1,0.1,1.5,0.2c0.5,0.1,1,0.1,1.6,0.2
				c1,0.1,2.1,0.3,3.2,0.4c0.5,0.1,1,0.1,1.5,0.2c2.7,0.4,5.5,0.8,8.2,1.3c1.7,0.3,3.3,0.5,5,0.8c1.7,0.3,3.3,0.6,5,0.8
				c0.8,0.2,1.7,0.3,2.5,0.5c1,0.2,2.1,0.4,3.1,0.6c0.7,0.1,1.3,0.3,2,0.4c0.8,0.2,1.5,0.3,2.3,0.5c5.1,1,10.2,2.1,15.1,3.2
				c0.8,0.2,1.6,0.4,2.4,0.6c1.6,0.4,3.2,0.7,4.8,1.1c0.4,0.1,0.9,0.2,1.3,0.3c1.1,0.3,2.2,0.5,3.2,0.8c0.1,0,0.1,0,0.2,0
				c0.8,0.2,1.5,0.4,2.3,0.6c0.8,0.2,1.5,0.4,2.2,0.6c0.2,0,0.3,0.1,0.5,0.1c0.9,0.2,1.8,0.5,2.6,0.7c0.4,0.1,0.9,0.3,1.4,0.4
				c0.3,0.1,0.7,0.2,1,0.3c0.3,0.1,0.7,0.2,1,0.3c0.8,0.3,1.7,0.5,2.5,0.7s1.6,0.5,2.4,0.7c0.4,0.1,0.8,0.3,1.2,0.4
				c0.6,0.2,1.2,0.4,1.8,0.5c0.6,0.2,1.1,0.4,1.7,0.5c0.9,0.3,1.8,0.6,2.7,0.9c0.9,0.3,1.7,0.6,2.5,0.9c0.3,0.1,0.5,0.2,0.8,0.3
				c0.3,0.1,0.5,0.2,0.8,0.3c0.4,0.1,0.8,0.3,1.1,0.4s0.8,0.3,1.1,0.4c0.2,0.1,0.4,0.2,0.7,0.3c0.4,0.2,0.8,0.3,1.2,0.5
				c0.3,0.1,0.5,0.2,0.8,0.3c0.3,0.1,0.5,0.2,0.8,0.3c0.3,0.1,0.5,0.2,0.7,0.3c0.2,0.1,0.4,0.2,0.6,0.3c0.4,0.2,0.8,0.3,1.2,0.5
				c0.2,0.1,0.4,0.2,0.6,0.3l0.4,0.2c0.1,0,0.1,0.1,0.2,0.1c0.5,0.2,0.9,0.5,1.4,0.7c0.4,0.2,0.8,0.4,1.2,0.6c0,0,0,0,0,0
				c0.5,0.2,0.9,0.5,1.3,0.7c0.1,0,0.2,0.1,0.3,0.1c0.3,0.2,0.6,0.3,0.8,0.5c0.4,0.2,0.7,0.5,1.1,0.7c0.1,0.1,0.2,0.1,0.2,0.2
				c0.1,0,0.1,0.1,0.2,0.1c0.2,0.2,0.5,0.3,0.7,0.5c0.2,0.2,0.4,0.3,0.6,0.5c0,0.1,0.1,0.1,0.2,0.1c0,0,0.1,0,0.1,0.1c0,0,0,0,0.1,0
				c0,0,0.1,0.1,0.1,0.1c0,0,0.1,0.1,0.1,0.1c0.1,0.1,0.3,0.3,0.4,0.4s0.3,0.2,0.4,0.4c0.1,0.1,0.2,0.2,0.2,0.2c0,0,0.1,0,0.1,0.1
				c0,0.1,0.1,0.1,0.2,0.2c0,0,0.1,0.1,0.2,0.2c0,0,0,0,0,0.1c0.1,0.1,0.1,0.1,0.2,0.2c0.1,0.1,0.1,0.2,0.2,0.2
				c0,0.1,0.1,0.2,0.2,0.2c0,0,0.1,0.1,0.1,0.1c0,0.1,0.1,0.1,0.1,0.1c0,0,0.1,0.1,0.1,0.1c0,0,0,0.1,0.1,0.1
				c0.1,0.1,0.1,0.2,0.2,0.3c0.1,0.1,0.1,0.2,0.1,0.3c0,0,0,0.1,0.1,0.1c0,0.1,0.1,0.2,0.1,0.3c0,0,0,0,0,0.1c0,0,0,0.1,0,0.2
				c0,0,0,0.1,0,0.1C96.3,520.7,96.3,520.8,96.3,520.9z"/>
			<path opacity="0.2" enable-background="new    " d="M96.3,520.9v0.4c0,0.9,0,2.2-0.1,3.6c0,0.2,0,0.5,0,0.7c0,0.1,0,0.3,0,0.4
				c0,0.3,0,0.6,0,1c0,1.8-0.1,3.8-0.2,6c0,0.4,0,0.8,0,1.2c0,0.2,0,0.4,0,0.6c-0.2,4-0.4,8.7-0.8,16.1c0,0.1,0,0.2,0,0.3
				c0,0.1,0,0.1,0,0.2c0,0.2,0,0.3,0,0.5c-0.1,1.6-0.2,2.9-0.4,3.7c0,0.2-0.1,0.4-0.1,0.5c0,0,0,0,0,0c0,0.1,0,0.2,0,0.2
				c0,0.2-0.1,0.4-0.1,0.6c-0.1,0.3-0.1,0.4-0.2,0.5c0,0.1-0.1,0.1-0.1,0.1c-0.2,0.2-0.4,0.1-0.6-0.1c-0.1-0.1-0.1-0.1-0.2-0.2
				c0,0-0.1-0.1-0.1-0.1c-0.1-0.1-0.1-0.2-0.2-0.3c-0.2-0.3-0.5-0.6-0.7-0.6c0,0-0.1,0-0.1,0c0,0-0.1,0-0.2,0.1
				c-0.1,0.1-0.3,0.4-0.4,0.8c0,0.1-0.1,0.2-0.1,0.3c-3.8-2.3-8.1-4.8-12.6-7.3c-0.6-0.3-1.2-0.7-1.8-1c-0.2-0.1-0.4-0.2-0.6-0.3
				c-5-2.8-10.3-5.6-15.9-8.5c-0.5-0.3-1-0.5-1.6-0.8c-4-2-8-4.1-12.1-6.1c-0.4-0.2-0.8-0.4-1.3-0.6c-23.4-11.4-48.9-22.6-69.9-30.2
				c-0.6-0.2-1.2-0.4-1.8-0.7c-2.7-1-5.4-1.9-7.9-2.7c-1.3-0.4-2.6-0.8-3.8-1.2c-7.8-2.5-14.5-4.2-19.7-4.9
				c-2.4-0.3-4.4-0.5-6.1-0.4c-2.1,0.1-3.7,0.6-4.5,1.5c0-0.4,0-0.7,0-1c0-0.5-0.1-1-0.1-1.4c0-0.3,0-0.5,0-0.8c0-0.3,0-0.7-0.1-1
				c0-0.1,0.1-0.2,0.1-0.3c0,0,0,0,0,0c0,0,0,0,0-0.1c0,0,0-0.1,0.1-0.1c0,0,0-0.1,0.1-0.1c0,0,0-0.1,0.1-0.1c0,0,0-0.1,0.1-0.1
				c0,0,0,0,0-0.1c0,0,0-0.1,0.1-0.1c0,0,0,0,0.1-0.1c0,0,0,0,0,0c0,0,0,0,0,0c0,0,0,0,0.1-0.1c0,0,0,0,0,0c0,0,0.1-0.1,0.1-0.1
				c0.1-0.1,0.2-0.2,0.3-0.3c0.1-0.1,0.2-0.2,0.3-0.2c0,0,0.1,0,0.1-0.1c0,0,0.1-0.1,0.1-0.1c0.6-0.3,1.2-0.6,1.8-0.8
				c0.2-0.1,0.4-0.1,0.7-0.2c0,0,0.1,0,0.1,0c0,0,0.1,0,0.1,0c0.1,0,0.2-0.1,0.4-0.1c0.3-0.1,0.5-0.2,0.8-0.2
				c0.2-0.1,0.5-0.1,0.7-0.2c0,0,0.1,0,0.1,0c0.1,0,0.3-0.1,0.5-0.1c0.2,0,0.5-0.1,0.7-0.1c0.2,0,0.4-0.1,0.6-0.1
				c1.7-0.3,3.6-0.5,5.6-0.6c0.2,0,0.4,0,0.6,0c0.1,0,0.2,0,0.3,0c0,0,0,0,0,0c0.1,0,0.2,0,0.3,0c0.1,0,0.2,0,0.3,0
				c0.1,0,0.2,0,0.3,0c0.2,0,0.4,0,0.6,0c0.6,0,1.1,0,1.8-0.1c1.2,0,2.4,0,3.7,0c0.5,0,1.1,0,1.7,0c0.4,0,0.9,0,1.3,0
				c0.5,0,0.9,0,1.3,0.1h0.2c0.8,0,1.6,0.1,2.4,0.1c0.4,0,0.7,0,1.1,0.1c0,0,0,0,0,0c0.2,0,0.4,0,0.6,0c0.5,0,1.1,0.1,1.7,0.1
				c0.4,0,0.9,0,1.3,0.1c0.4,0,0.7,0.1,1.1,0.1c0.2,0,0.4,0,0.6,0c0.3,0,0.5,0,0.8,0.1c0.6,0,1.2,0.1,1.9,0.1c0.3,0,0.6,0,0.9,0.1
				c0.3,0,0.6,0.1,1,0.1c0.6,0.1,1.3,0.1,1.9,0.2c0.1,0,0.1,0,0.2,0c0.4,0,0.7,0.1,1.1,0.1c0.2,0,0.5,0,0.7,0.1c0,0,0,0,0.1,0
				c2.1,0.2,4.2,0.4,6.3,0.7c0.5,0.1,1,0.1,1.6,0.2c0.6,0.1,1.2,0.1,1.8,0.2c0.1,0,0.2,0,0.4,0c0.5,0.1,1,0.1,1.6,0.2s1,0.1,1.6,0.2
				c1,0.1,2.1,0.3,3.2,0.4c0.5,0.1,1,0.1,1.5,0.2c2.7,0.4,5.5,0.8,8.2,1.3c1.7,0.3,3.3,0.5,5,0.8c1.7,0.3,3.3,0.6,5,0.9
				c0.8,0.1,1.7,0.3,2.5,0.5c1,0.2,2.1,0.4,3.1,0.6c0.7,0.1,1.3,0.2,2,0.4c0.8,0.2,1.6,0.3,2.3,0.5c5.1,1,10.2,2.1,15.1,3.2
				c0.8,0.2,1.6,0.4,2.4,0.6c1.6,0.4,3.2,0.7,4.8,1.1c0.4,0.1,0.9,0.2,1.3,0.3c1.1,0.3,2.2,0.5,3.2,0.8c0.1,0,0.1,0,0.2,0
				c0.8,0.2,1.5,0.4,2.3,0.6c0.8,0.2,1.5,0.4,2.2,0.6c0.2,0,0.3,0.1,0.5,0.1c0.9,0.2,1.8,0.5,2.6,0.7c0.5,0.1,0.9,0.3,1.4,0.4
				c0.3,0.1,0.7,0.2,1,0.3c0.3,0.1,0.7,0.2,1,0.3c0.8,0.3,1.7,0.5,2.5,0.7c0.8,0.3,1.6,0.5,2.5,0.7c0.4,0.1,0.8,0.2,1.2,0.4
				c0.6,0.2,1.2,0.4,1.8,0.5c0.6,0.2,1.1,0.4,1.7,0.5c0.9,0.3,1.8,0.6,2.6,0.9l0,0c0.9,0.3,1.7,0.6,2.5,0.9c0.3,0.1,0.5,0.2,0.8,0.3
				c0.3,0.1,0.5,0.2,0.8,0.3c0.4,0.1,0.8,0.3,1.1,0.4s0.8,0.3,1.1,0.4c0.2,0.1,0.4,0.2,0.7,0.3c0.4,0.2,0.8,0.3,1.2,0.5
				c0.3,0.1,0.5,0.2,0.8,0.3c0.3,0.1,0.5,0.2,0.8,0.3c0.3,0.1,0.5,0.2,0.7,0.3c0.2,0.1,0.4,0.2,0.6,0.3c0.4,0.2,0.8,0.3,1.2,0.5
				c0.2,0.1,0.4,0.2,0.6,0.3l0.4,0.2c0.1,0,0.1,0.1,0.2,0.1c0.5,0.2,0.9,0.5,1.4,0.7c0.4,0.2,0.8,0.4,1.2,0.6c0,0,0,0,0,0
				c0.5,0.2,0.9,0.5,1.3,0.7c0.1,0,0.2,0.1,0.3,0.1c0.3,0.2,0.6,0.3,0.8,0.5c0.4,0.2,0.7,0.5,1.1,0.7c0.2,0.1,0.3,0.2,0.5,0.3
				c0.2,0.2,0.5,0.3,0.7,0.5c0.2,0.2,0.4,0.3,0.6,0.5c0,0,0,0,0,0c0.1,0.1,0.2,0.1,0.3,0.2c0.1,0,0.1,0.1,0.2,0.2
				c0,0,0.1,0.1,0.1,0.1c0.1,0.1,0.3,0.3,0.4,0.4s0.3,0.2,0.4,0.4c0.1,0.1,0.2,0.2,0.2,0.2c0,0,0.1,0,0.1,0.1c0,0.1,0.1,0.1,0.2,0.2
				c0.1,0.1,0.1,0.2,0.2,0.2s0.1,0.1,0.2,0.2c0.1,0.1,0.1,0.2,0.2,0.2c0.1,0.1,0.1,0.2,0.2,0.2c0,0,0.1,0.1,0.1,0.1
				c0,0.1,0.1,0.1,0.1,0.1c0,0,0.1,0.1,0.1,0.1c0,0,0,0.1,0.1,0.1c0.1,0.1,0.1,0.2,0.2,0.3c0.1,0.1,0.1,0.2,0.1,0.3c0,0,0,0.1,0,0.1
				c0,0.1,0.1,0.2,0.1,0.3c0,0,0,0,0,0.1c0,0,0,0.1,0,0.2c0,0,0,0.1,0,0.1C96.3,520.7,96.3,520.8,96.3,520.9z"/>
		</g>
	</g>
</g>
<g id="WOMAN">
	<g>
		<path fill="#1D2338" d="M210.8,423.9v65.2h45.6v-65.2c0-1-0.6-1.8-1.5-2.1c-0.2-0.1-0.4-0.1-0.7-0.1H213
			C211.8,421.7,210.8,422.7,210.8,423.9C210.8,423.9,210.8,423.9,210.8,423.9z M228.6,446.3c0-2.7,2.2-4.9,4.9-4.8
			c2.7,0,4.8,2.2,4.8,4.8v7.6c0,2.7-2.2,4.9-4.9,4.8c-2.7,0-4.8-2.2-4.8-4.8V446.3z"/>
		<path fill="#3F3D56" d="M210.7,487v6.3c0,0.7,0.5,1.2,1.2,1.2h43.5c0.7,0,1.2-0.6,1.2-1.2V487H210.7z"/>
		<path fill="#3F3D56" d="M139,325.8v119c0,3.2,2.6,5.7,5.7,5.7H321c3.2,0,5.7-2.6,5.7-5.7v-119c0-3.2-2.6-5.7-5.7-5.7H144.7
			C141.6,320.1,139,322.6,139,325.8z"/>
		<path fill="#FFFFFF" d="M143.1,327.3v116c0,1.7,1.4,3.1,3.1,3.1h173.4c1.7,0,3.1-1.4,3.1-3.1v-116c0-1.7-1.4-3.1-3.1-3.1H146.2
			C144.5,324.2,143.1,325.6,143.1,327.3z"/>
		<path fill="#1D2338" d="M175.3,494.1c0.4,0.4,0.9,0.7,1.5,0.7h103.1c1,0,1.9-0.9,1.9-1.9c0-0.1,0-0.3,0-0.4l-1.6-7.6
			c-0.1-0.6-0.6-1.1-1.2-1.4c-0.2-0.1-0.4-0.1-0.7-0.1h-99.9c-0.2,0-0.5,0-0.7,0.1c-0.6,0.2-1,0.7-1.2,1.4l-1.6,7.6
			C174.8,493.1,174.9,493.7,175.3,494.1z"/>
		<path opacity="0.5" fill="#3F3D56" d="M313.9,340.2H151.7c-0.4,0-0.6-0.3-0.6-0.7c0-0.3,0.3-0.6,0.6-0.6h162.2
			c0.4,0,0.6,0.3,0.6,0.7C314.5,339.9,314.3,340.2,313.9,340.2z"/>
		<g opacity="0.6">
			<ellipse fill="#3F3D56" cx="283.4" cy="332.9" rx="3.8" ry="3.9"/>
			<ellipse fill="#3F3D56" cx="296.4" cy="332.9" rx="3.8" ry="3.9"/>
			<ellipse fill="#3F3D56" cx="309.5" cy="332.9" rx="3.8" ry="3.9"/>
		</g>
		<g>
			<path fill="#3F3D56" d="M161,330.1h-9.3c-0.4,0-0.7,0.3-0.7,0.7c0,0.4,0.3,0.7,0.7,0.7h9.3c0.4,0,0.7-0.3,0.7-0.7
				C161.7,330.4,161.4,330.1,161,330.1z"/>
			<path fill="#3F3D56" d="M161,332.7h-9.3c-0.4,0-0.7,0.3-0.7,0.7c0,0.4,0.3,0.7,0.7,0.7h9.3c0.4,0,0.7-0.3,0.7-0.7
				C161.7,333,161.4,332.7,161,332.7z"/>
			<path fill="#3F3D56" d="M161,335.3h-9.3c-0.4,0-0.7,0.3-0.7,0.7c0,0.4,0.3,0.7,0.7,0.7h9.3c0.4,0,0.7-0.3,0.7-0.7
				C161.7,335.6,161.4,335.3,161,335.3z"/>
		</g>
		<path fill="#63FF92" d="M224.1,400.8h28.1c1.1,0,2.1,0.9,2.1,2.1v2.7c0,1.1-0.9,2.1-2.1,2.1h-28.1c-1.1,0-2.1-0.9-2.1-2.1v-2.7
			C222,401.7,223,400.8,224.1,400.8z"/>
		<path fill="#E6E6E6" d="M207.7,375h60.8c1.1,0,2.1,0.9,2.1,2.1v2.7c0,1.1-0.9,2.1-2.1,2.1h-60.8c-1.1,0-2.1-0.9-2.1-2.1V377
			C205.7,375.9,206.6,375,207.7,375z"/>
		<path fill="#E6E6E6" d="M207.7,388.7h60.8c1.1,0,2.1,0.9,2.1,2.1v2.7c0,1.1-0.9,2.1-2.1,2.1h-60.8c-1.1,0-2.1-0.9-2.1-2.1v-2.7
			C205.7,389.7,206.6,388.7,207.7,388.7z"/>
		<circle fill="#E6E6E6" cx="238.2" cy="360" r="10.5"/>
		<g>
			<path fill="#079647" d="M240,362.9c0-0.4,0-0.8,0-1.3c0-0.4,0-0.8,0-1.2c0-1.1,0-2.2,0-3.3c0-0.1,0-0.2,0-0.4c-0.9,0-1.8,0-2.7,0
				c0.5,2.5,1,5.1,1.5,7.6c-0.5,0-1.1,0-1.6,0c0,0,0.1,0,0.1,0c1.4,0,2.9,0,4.3,0c0-0.5,0-1,0-1.5C241.1,362.9,240.5,363,240,362.9z
				"/>
			<path fill="#2B2F84" d="M245.3,362.4c0-0.4-0.1-0.8-0.2-1.1c-0.1-0.2-0.2-0.4-0.4-0.5c-0.2-0.2-0.4-0.3-0.7-0.4
				c-0.5-0.3-1-0.5-1.5-0.7c-0.2-0.1-0.4-0.2-0.6-0.3c-0.2-0.1-0.2-0.3-0.2-0.5c0-0.1,0-0.3,0-0.4c0-0.1,0.1-0.2,0.2-0.2
				c0.1-0.1,0.3-0.1,0.4,0c0.1,0,0.2,0.1,0.2,0.1c0.1,0.1,0.1,0.2,0.1,0.3c0,0.2,0,0.4,0,0.6c0.8,0,1.7,0,2.5,0c0-0.4,0-0.9-0.1-1.3
				c-0.1-0.2-0.2-0.4-0.4-0.5c-0.3-0.2-0.6-0.3-0.9-0.4c-0.6-0.2-1.3-0.2-1.9-0.2c-0.6,0-1.3,0.1-1.8,0.4c0,1.1,0,2.2,0,3.3
				c0.3,0.2,0.6,0.3,0.8,0.4c0.5,0.2,1,0.5,1.5,0.7c0.1,0.1,0.2,0.1,0.3,0.2c0.1,0.2,0.1,0.3,0.1,0.5c0,0.2,0,0.3,0,0.5
				c0,0.1-0.1,0.2-0.2,0.3c-0.1,0.1-0.3,0.1-0.4,0.1c-0.1,0-0.2-0.1-0.3-0.2c-0.1-0.1-0.1-0.3-0.1-0.4c0-0.3,0-0.6,0-1
				c-0.6,0-1.2,0-1.8,0c0,0.4,0,0.8,0,1.3c0.6,0,1.1,0,1.7,0c0,0.5,0,1,0,1.5c0.4,0,0.8,0,1.2,0c0.5,0,1.1-0.2,1.5-0.4
				c0.2-0.1,0.4-0.2,0.6-0.4c0.1-0.1,0.2-0.3,0.3-0.5C245.3,362.9,245.3,362.7,245.3,362.4z"/>
			<g>
				<polygon fill="#EC2024" points="239.9,364.5 236.8,364.5 235.5,360.7 234.3,364.5 231,364.5 232.4,360 233.5,356.8 237.4,356.8 
					238.1,358.8 				"/>
			</g>
			<path fill="#079647" d="M234.9,355.2c-0.2-0.2-0.5-0.3-0.7-0.2c-0.2,0-0.3,0.1-0.4,0.2c-0.2,0.2-0.3,0.4-0.3,0.6
				c0,0.2,0.1,0.5,0.3,0.6c0.2,0.1,0.4,0.2,0.6,0.2c0.2,0,0.4-0.1,0.6-0.3c0.2-0.1,0.2-0.4,0.3-0.6
				C235.1,355.6,235.1,355.3,234.9,355.2z"/>
			<path fill="#2B2F84" d="M237.6,355.6c-0.1-0.2-0.2-0.4-0.4-0.6c-0.2-0.1-0.4-0.1-0.6-0.1c-0.4,0.1-0.7,0.4-0.7,0.8
				c0,0.2,0.1,0.5,0.3,0.7c0.2,0.2,0.5,0.3,0.8,0.2c0.2,0,0.3-0.1,0.4-0.3C237.6,356.1,237.6,355.8,237.6,355.6z"/>
			<path fill="#EC2024" d="M239.9,355.7c0-0.2-0.2-0.5-0.4-0.6c-0.2-0.1-0.4-0.1-0.6-0.1c-0.3,0.1-0.6,0.3-0.6,0.6
				c-0.1,0.3,0,0.5,0.1,0.8c0.2,0.3,0.6,0.4,0.9,0.3c0.3-0.1,0.5-0.3,0.6-0.6C239.9,355.9,239.9,355.8,239.9,355.7z"/>
		</g>
	</g>
	<g>
		<path fill="#2F2E41" d="M412.8,443.7h-26.8c-0.1,0-0.3,0-0.4,0.1c-0.6,0.2-1,0.7-1,1.4v42.3h29.6v-42.3
			C414.3,444.3,413.6,443.7,412.8,443.7C412.8,443.7,412.8,443.7,412.8,443.7z M402.7,464.6c0,0.7-0.2,1.4-0.6,1.9
			c-1.1,1.4-3,1.7-4.4,0.6c-0.8-0.6-1.3-1.5-1.3-2.5v-4.9c0-1.7,1.4-3.1,3.2-3.1c1.7,0,3.1,1.4,3.1,3.1V464.6z"/>
		<path fill="#3F3D56" d="M384.6,486v4.1c0,0.4,0.4,0.8,0.8,0.8h28.2c0.4,0,0.8-0.4,0.8-0.8V486H384.6z"/>
		<path fill="#3F3D56" d="M457.2,377.7H342.8c-2,0-3.7,1.7-3.7,3.7v77.2c0,2,1.7,3.7,3.7,3.7h114.4c2,0,3.7-1.7,3.7-3.7v-77.2
			C460.9,379.4,459.2,377.7,457.2,377.7z"/>
		<path opacity="0.89" fill="#63FF92" d="M456.2,380.4H343.7c-1.1,0-2,0.9-2,2v75.3c0,1.1,0.9,2,2,2h112.5c1.1,0,2-0.9,2-2v-75.3
			C458.2,381.3,457.3,380.4,456.2,380.4z"/>
		<path fill="#2F2E41" d="M435.5,490.9l-1-4.9c-0.1-0.4-0.4-0.7-0.8-0.9c-0.1-0.1-0.3-0.1-0.4-0.1h-64.8c-0.1,0-0.3,0-0.4,0.1
			c-0.4,0.1-0.7,0.5-0.8,0.9l-1,4.9c-0.1,0.7,0.3,1.3,1,1.5c0.1,0,0.2,0,0.3,0h66.9c0.4,0,0.7-0.2,1-0.5
			C435.5,491.6,435.6,491.2,435.5,490.9z"/>
		<path fill="#3F3D56" d="M369.1,485.8h1.7c0.1,0,0.2,0.1,0.2,0.2v0.8c0,0.1-0.1,0.2-0.2,0.2h-1.7c-0.1,0-0.2-0.1-0.2-0.2V486
			C368.9,485.9,369,485.8,369.1,485.8z"/>
		<path fill="#3F3D56" d="M373.2,485.8h1.7c0.1,0,0.2,0.1,0.2,0.2v0.8c0,0.1-0.1,0.2-0.2,0.2h-1.7c-0.1,0-0.2-0.1-0.2-0.2V486
			C373,485.9,373.1,485.8,373.2,485.8z"/>
		<path fill="#3F3D56" d="M377.3,485.8h1.7c0.1,0,0.2,0.1,0.2,0.2v0.8c0,0.1-0.1,0.2-0.2,0.2h-1.7c-0.1,0-0.2-0.1-0.2-0.2V486
			C377.1,485.9,377.2,485.8,377.3,485.8z"/>
		<path fill="#3F3D56" d="M381.5,485.8h1.7c0.1,0,0.2,0.1,0.2,0.2v0.8c0,0.1-0.1,0.2-0.2,0.2h-1.7c-0.1,0-0.2-0.1-0.2-0.2V486
			C381.3,485.9,381.3,485.8,381.5,485.8z"/>
		<path fill="#3F3D56" d="M385.6,485.8h1.7c0.1,0,0.2,0.1,0.2,0.2v0.8c0,0.1-0.1,0.2-0.2,0.2h-1.7c-0.1,0-0.2-0.1-0.2-0.2V486
			C385.4,485.9,385.5,485.8,385.6,485.8z"/>
		<path fill="#3F3D56" d="M389.7,485.8h1.7c0.1,0,0.2,0.1,0.2,0.2v0.8c0,0.1-0.1,0.2-0.2,0.2h-1.7c-0.1,0-0.2-0.1-0.2-0.2V486
			C389.5,485.9,389.6,485.8,389.7,485.8z"/>
		<path fill="#3F3D56" d="M393.8,485.8h1.7c0.1,0,0.2,0.1,0.2,0.2v0.8c0,0.1-0.1,0.2-0.2,0.2h-1.7c-0.1,0-0.2-0.1-0.2-0.2V486
			C393.6,485.9,393.7,485.8,393.8,485.8z"/>
		<path fill="#3F3D56" d="M397.9,485.8h1.7c0.1,0,0.2,0.1,0.2,0.2v0.8c0,0.1-0.1,0.2-0.2,0.2h-1.7c-0.1,0-0.2-0.1-0.2-0.2V486
			C397.7,485.9,397.8,485.8,397.9,485.8z"/>
		<path fill="#3F3D56" d="M402.1,485.8h1.7c0.1,0,0.2,0.1,0.2,0.2v0.8c0,0.1-0.1,0.2-0.2,0.2h-1.7c-0.1,0-0.2-0.1-0.2-0.2V486
			C401.9,485.9,402,485.8,402.1,485.8z"/>
		<path fill="#3F3D56" d="M406.2,485.8h1.7c0.1,0,0.2,0.1,0.2,0.2v0.8c0,0.1-0.1,0.2-0.2,0.2h-1.7c-0.1,0-0.2-0.1-0.2-0.2V486
			C406,485.9,406.1,485.8,406.2,485.8z"/>
		<path fill="#3F3D56" d="M410.3,485.8h1.7c0.1,0,0.2,0.1,0.2,0.2v0.8c0,0.1-0.1,0.2-0.2,0.2h-1.7c-0.1,0-0.2-0.1-0.2-0.2V486
			C410.1,485.9,410.2,485.8,410.3,485.8z"/>
		<path fill="#3F3D56" d="M414.4,485.8h1.7c0.1,0,0.2,0.1,0.2,0.2v0.8c0,0.1-0.1,0.2-0.2,0.2h-1.7c-0.1,0-0.2-0.1-0.2-0.2V486
			C414.2,485.9,414.3,485.8,414.4,485.8z"/>
		<path fill="#3F3D56" d="M418.5,485.8h1.7c0.1,0,0.2,0.1,0.2,0.2v0.8c0,0.1-0.1,0.2-0.2,0.2h-1.7c-0.1,0-0.2-0.1-0.2-0.2V486
			C418.3,485.9,418.4,485.8,418.5,485.8z"/>
		<path fill="#3F3D56" d="M422.7,485.8h1.7c0.1,0,0.2,0.1,0.2,0.2v0.8c0,0.1-0.1,0.2-0.2,0.2h-1.7c-0.1,0-0.2-0.1-0.2-0.2V486
			C422.5,485.9,422.6,485.8,422.7,485.8z"/>
		<path fill="#3F3D56" d="M426.8,485.8h1.7c0.1,0,0.2,0.1,0.2,0.2v0.8c0,0.1-0.1,0.2-0.2,0.2h-1.7c-0.1,0-0.2-0.1-0.2-0.2V486
			C426.6,485.9,426.7,485.8,426.8,485.8z"/>
		<path fill="#3F3D56" d="M430.9,485.8h1.7c0.1,0,0.2,0.1,0.2,0.2v0.8c0,0.1-0.1,0.2-0.2,0.2h-1.7c-0.1,0-0.2-0.1-0.2-0.2V486
			C430.7,485.9,430.8,485.8,430.9,485.8z"/>
		<path fill="#3F3D56" d="M369,487.9h1.7c0.1,0,0.2,0.1,0.2,0.2v0.8c0,0.1-0.1,0.2-0.2,0.2H369c-0.1,0-0.2-0.1-0.2-0.2v-0.8
			C368.8,488,368.9,487.9,369,487.9z"/>
		<path fill="#3F3D56" d="M373.2,487.9h1.7c0.1,0,0.2,0.1,0.2,0.2v0.8c0,0.1-0.1,0.2-0.2,0.2h-1.7c-0.1,0-0.2-0.1-0.2-0.2v-0.8
			C373,488,373,487.9,373.2,487.9z"/>
		<path fill="#3F3D56" d="M377.3,487.9h1.7c0.1,0,0.2,0.1,0.2,0.2v0.8c0,0.1-0.1,0.2-0.2,0.2h-1.7c-0.1,0-0.2-0.1-0.2-0.2v-0.8
			C377.1,488,377.2,487.9,377.3,487.9z"/>
		<path fill="#3F3D56" d="M381.4,487.9h1.7c0.1,0,0.2,0.1,0.2,0.2v0.8c0,0.1-0.1,0.2-0.2,0.2h-1.7c-0.1,0-0.2-0.1-0.2-0.2v-0.8
			C381.2,488,381.3,487.9,381.4,487.9z"/>
		<path fill="#3F3D56" d="M385.5,487.9h1.7c0.1,0,0.2,0.1,0.2,0.2v0.8c0,0.1-0.1,0.2-0.2,0.2h-1.7c-0.1,0-0.2-0.1-0.2-0.2v-0.8
			C385.3,488,385.4,487.9,385.5,487.9z"/>
		<path fill="#3F3D56" d="M389.6,487.9h1.7c0.1,0,0.2,0.1,0.2,0.2v0.8c0,0.1-0.1,0.2-0.2,0.2h-1.7c-0.1,0-0.2-0.1-0.2-0.2v-0.8
			C389.4,488,389.5,487.9,389.6,487.9z"/>
		<path fill="#3F3D56" d="M393.8,487.9h1.7c0.1,0,0.2,0.1,0.2,0.2v0.8c0,0.1-0.1,0.2-0.2,0.2h-1.7c-0.1,0-0.2-0.1-0.2-0.2v-0.8
			C393.6,488,393.7,487.9,393.8,487.9z"/>
		<path fill="#3F3D56" d="M397.9,487.9h1.7c0.1,0,0.2,0.1,0.2,0.2v0.8c0,0.1-0.1,0.2-0.2,0.2h-1.7c-0.1,0-0.2-0.1-0.2-0.2v-0.8
			C397.7,488,397.8,487.9,397.9,487.9z"/>
		<path fill="#3F3D56" d="M402,487.9h1.7c0.1,0,0.2,0.1,0.2,0.2v0.8c0,0.1-0.1,0.2-0.2,0.2H402c-0.1,0-0.2-0.1-0.2-0.2v-0.8
			C401.8,488,401.9,487.9,402,487.9z"/>
		<path fill="#3F3D56" d="M406.1,487.9h1.7c0.1,0,0.2,0.1,0.2,0.2v0.8c0,0.1-0.1,0.2-0.2,0.2h-1.7c-0.1,0-0.2-0.1-0.2-0.2v-0.8
			C405.9,488,406,487.9,406.1,487.9z"/>
		<path fill="#3F3D56" d="M410.3,487.9h1.7c0.1,0,0.2,0.1,0.2,0.2v0.8c0,0.1-0.1,0.2-0.2,0.2h-1.7c-0.1,0-0.2-0.1-0.2-0.2v-0.8
			C410.1,488,410.1,487.9,410.3,487.9z"/>
		<path fill="#3F3D56" d="M414.4,487.9h1.7c0.1,0,0.2,0.1,0.2,0.2v0.8c0,0.1-0.1,0.2-0.2,0.2h-1.7c-0.1,0-0.2-0.1-0.2-0.2v-0.8
			C414.2,488,414.3,487.9,414.4,487.9z"/>
		<path fill="#3F3D56" d="M418.5,487.9h1.7c0.1,0,0.2,0.1,0.2,0.2v0.8c0,0.1-0.1,0.2-0.2,0.2h-1.7c-0.1,0-0.2-0.1-0.2-0.2v-0.8
			C418.3,488,418.4,487.9,418.5,487.9z"/>
		<path fill="#3F3D56" d="M422.6,487.9h1.7c0.1,0,0.2,0.1,0.2,0.2v0.8c0,0.1-0.1,0.2-0.2,0.2h-1.7c-0.1,0-0.2-0.1-0.2-0.2v-0.8
			C422.4,488,422.5,487.9,422.6,487.9z"/>
		<path fill="#3F3D56" d="M426.7,487.9h1.7c0.1,0,0.2,0.1,0.2,0.2v0.8c0,0.1-0.1,0.2-0.2,0.2h-1.7c-0.1,0-0.2-0.1-0.2-0.2v-0.8
			C426.5,488,426.6,487.9,426.7,487.9z"/>
		<path fill="#3F3D56" d="M430.9,487.9h1.7c0.1,0,0.2,0.1,0.2,0.2v0.8c0,0.1-0.1,0.2-0.2,0.2h-1.7c-0.1,0-0.2-0.1-0.2-0.2v-0.8
			C430.7,488,430.8,487.9,430.9,487.9z"/>
		<path fill="#3F3D56" d="M388.8,490.4h16.1c0.1,0,0.2,0.1,0.2,0.2v0.8c0,0.1-0.1,0.2-0.2,0.2h-16.1c-0.1,0-0.2-0.1-0.2-0.2v-0.8
			C388.6,490.5,388.7,490.4,388.8,490.4z"/>
		<path fill="#3F3D56" d="M450.5,390.8H345.3c-0.2,0-0.4-0.2-0.4-0.4c0-0.2,0.2-0.4,0.4-0.4h105.2c0.2,0,0.4,0.2,0.4,0.4
			C450.9,390.6,450.8,390.8,450.5,390.8z"/>
		<ellipse fill="#3F3D56" cx="352.5" cy="385.3" rx="2.5" ry="2.5"/>
		<ellipse fill="#3F3D56" cx="360.9" cy="385.3" rx="2.5" ry="2.5"/>
		<ellipse fill="#3F3D56" cx="369.4" cy="385.3" rx="2.5" ry="2.5"/>
		<path fill="#3F3D56" d="M445.4,383.4h-6c-0.3,0-0.5,0.2-0.4,0.5c0,0.2,0.2,0.4,0.4,0.4h6c0.3,0,0.5-0.2,0.4-0.5
			C445.9,383.6,445.7,383.4,445.4,383.4z"/>
		<path fill="#3F3D56" d="M445.4,385.1h-6c-0.3,0-0.5,0.2-0.4,0.5c0,0.2,0.2,0.4,0.4,0.4h6c0.3,0,0.5-0.2,0.4-0.5
			C445.9,385.3,445.7,385.1,445.4,385.1z"/>
		<path fill="#3F3D56" d="M445.4,386.8h-6c-0.3,0-0.5,0.2-0.4,0.5c0,0.2,0.2,0.4,0.4,0.4h6c0.3,0,0.5-0.2,0.4-0.5
			C445.9,387,445.7,386.8,445.4,386.8z"/>
		<path fill="#E6E6E6" d="M352.2,400.5h2.2c0.7,0,1.2,0.5,1.2,1.2v0c0,0.7-0.5,1.2-1.2,1.2h-2.2c-0.7,0-1.2-0.5-1.2-1.2v0
			C351,401,351.6,400.5,352.2,400.5z"/>
		<path fill="#E6E6E6" d="M376.9,400.5h2.2c0.7,0,1.2,0.5,1.2,1.2v0c0,0.7-0.5,1.2-1.2,1.2h-2.2c-0.7,0-1.2-0.5-1.2-1.2v0
			C375.8,401,376.3,400.5,376.9,400.5z"/>
		<path fill="#E6E6E6" d="M384,400.5h2.2c0.7,0,1.2,0.5,1.2,1.2v0c0,0.7-0.5,1.2-1.2,1.2H384c-0.7,0-1.2-0.5-1.2-1.2v0
			C382.8,401,383.3,400.5,384,400.5z"/>
		<path fill="#E6E6E6" d="M358.9,400.3h13.4c0.7,0,1.2,0.5,1.2,1.2l0,0c0,0.7-0.5,1.2-1.2,1.2h-13.4c-0.7,0-1.2-0.5-1.2-1.2l0,0
			C357.8,400.8,358.3,400.3,358.9,400.3z"/>
		<path fill="#E6E6E6" d="M391.9,400.3h13.4c0.7,0,1.2,0.5,1.2,1.2l0,0c0,0.7-0.5,1.2-1.2,1.2h-13.4c-0.7,0-1.2-0.5-1.2-1.2l0,0
			C390.7,400.8,391.3,400.3,391.9,400.3z"/>
		<path fill="#E6E6E6" d="M358.8,405.9h2.2c0.7,0,1.2,0.5,1.2,1.2v0c0,0.7-0.5,1.2-1.2,1.2h-2.2c-0.7,0-1.2-0.5-1.2-1.2v0
			C357.6,406.4,358.2,405.9,358.8,405.9z"/>
		<path fill="#E6E6E6" d="M383.5,405.9h2.2c0.7,0,1.2,0.5,1.2,1.2v0c0,0.7-0.5,1.2-1.2,1.2h-2.2c-0.7,0-1.2-0.5-1.2-1.2v0
			C382.4,406.4,382.9,405.9,383.5,405.9z"/>
		<path fill="#E6E6E6" d="M390.5,405.9h2.2c0.7,0,1.2,0.5,1.2,1.2v0c0,0.7-0.5,1.2-1.2,1.2h-2.2c-0.7,0-1.2-0.5-1.2-1.2v0
			C389.4,406.4,389.9,405.9,390.5,405.9z"/>
		<path fill="#E6E6E6" d="M365.5,405.7H379c0.7,0,1.2,0.5,1.2,1.2l0,0c0,0.7-0.5,1.2-1.2,1.2h-13.4c-0.7,0-1.2-0.5-1.2-1.2l0,0
			C364.3,406.2,364.9,405.7,365.5,405.7z"/>
		<path fill="#E6E6E6" d="M398.5,405.7h13.4c0.7,0,1.2,0.5,1.2,1.2l0,0c0,0.7-0.5,1.2-1.2,1.2h-13.4c-0.7,0-1.2-0.5-1.2-1.2l0,0
			C397.3,406.2,397.9,405.7,398.5,405.7z"/>
		<path fill="#E6E6E6" d="M365.4,411.2h2.2c0.7,0,1.2,0.5,1.2,1.2v0c0,0.7-0.5,1.2-1.2,1.2h-2.2c-0.7,0-1.2-0.5-1.2-1.2v0
			C364.2,411.7,364.7,411.2,365.4,411.2z"/>
		<path fill="#E6E6E6" d="M390.1,411.2h2.2c0.7,0,1.2,0.5,1.2,1.2v0c0,0.7-0.5,1.2-1.2,1.2h-2.2c-0.7,0-1.2-0.5-1.2-1.2v0
			C388.9,411.7,389.5,411.2,390.1,411.2z"/>
		<path fill="#E6E6E6" d="M397.1,411.2h2.2c0.7,0,1.2,0.5,1.2,1.2v0c0,0.7-0.5,1.2-1.2,1.2h-2.2c-0.7,0-1.2-0.5-1.2-1.2v0
			C396,411.7,396.5,411.2,397.1,411.2z"/>
		<path fill="#E6E6E6" d="M372.1,411h13.4c0.7,0,1.2,0.5,1.2,1.2l0,0c0,0.7-0.5,1.2-1.2,1.2h-13.4c-0.7,0-1.2-0.5-1.2-1.2l0,0
			C370.9,411.5,371.5,411,372.1,411z"/>
		<path fill="#E6E6E6" d="M405.1,411h13.4c0.7,0,1.2,0.5,1.2,1.2l0,0c0,0.7-0.5,1.2-1.2,1.2h-13.4c-0.7,0-1.2-0.5-1.2-1.2l0,0
			C403.9,411.5,404.4,411,405.1,411z"/>
		<path fill="#E6E6E6" d="M372,416.6h2.2c0.7,0,1.2,0.5,1.2,1.2v0c0,0.7-0.5,1.2-1.2,1.2H372c-0.7,0-1.2-0.5-1.2-1.2v0
			C370.8,417.1,371.3,416.6,372,416.6z"/>
		<path fill="#E6E6E6" d="M396.7,416.6h2.2c0.7,0,1.2,0.5,1.2,1.2v0c0,0.7-0.5,1.2-1.2,1.2h-2.2c-0.7,0-1.2-0.5-1.2-1.2v0
			C395.5,417.1,396.1,416.6,396.7,416.6z"/>
		<path fill="#E6E6E6" d="M403.7,416.6h2.2c0.7,0,1.2,0.5,1.2,1.2v0c0,0.7-0.5,1.2-1.2,1.2h-2.2c-0.7,0-1.2-0.5-1.2-1.2v0
			C402.5,417.1,403.1,416.6,403.7,416.6z"/>
		<path fill="#E6E6E6" d="M378.7,416.4h13.4c0.7,0,1.2,0.5,1.2,1.2l0,0c0,0.7-0.5,1.2-1.2,1.2h-13.4c-0.7,0-1.2-0.5-1.2-1.2l0,0
			C377.5,416.9,378.1,416.4,378.7,416.4z"/>
		<path fill="#E6E6E6" d="M376.9,437.9h2.2c0.7,0,1.2,0.5,1.2,1.2l0,0c0,0.7-0.5,1.2-1.2,1.2h-2.2c-0.7,0-1.2-0.5-1.2-1.2l0,0
			C375.8,438.4,376.3,437.9,376.9,437.9z"/>
		<path fill="#E6E6E6" d="M384,437.9h2.2c0.7,0,1.2,0.5,1.2,1.2l0,0c0,0.7-0.5,1.2-1.2,1.2H384c-0.7,0-1.2-0.5-1.2-1.2l0,0
			C382.8,438.4,383.3,437.9,384,437.9z"/>
		<path fill="#E6E6E6" d="M391.9,438.1h13.4c0.7,0,1.2,0.5,1.2,1.2v0c0,0.7-0.5,1.2-1.2,1.2h-13.4c-0.7,0-1.2-0.5-1.2-1.2v0
			C390.7,438.6,391.3,438.1,391.9,438.1z"/>
		<path fill="#E6E6E6" d="M352.2,437.9h2.2c0.7,0,1.2,0.5,1.2,1.2l0,0c0,0.7-0.5,1.2-1.2,1.2h-2.2c-0.7,0-1.2-0.5-1.2-1.2l0,0
			C351,438.4,351.6,437.9,352.2,437.9z"/>
		<path fill="#E6E6E6" d="M358.9,438.1h13.4c0.7,0,1.2,0.5,1.2,1.2v0c0,0.7-0.5,1.2-1.2,1.2h-13.4c-0.7,0-1.2-0.5-1.2-1.2v0
			C357.8,438.6,358.3,438.1,358.9,438.1z"/>
		<path fill="#E6E6E6" d="M358.8,432.5h2.2c0.7,0,1.2,0.5,1.2,1.2l0,0c0,0.7-0.5,1.2-1.2,1.2h-2.2c-0.7,0-1.2-0.5-1.2-1.2l0,0
			C357.6,433.1,358.2,432.5,358.8,432.5z"/>
		<path fill="#E6E6E6" d="M383.5,432.5h2.2c0.7,0,1.2,0.5,1.2,1.2l0,0c0,0.7-0.5,1.2-1.2,1.2h-2.2c-0.7,0-1.2-0.5-1.2-1.2l0,0
			C382.4,433.1,382.9,432.5,383.5,432.5z"/>
		<path fill="#E6E6E6" d="M390.5,432.5h2.2c0.7,0,1.2,0.5,1.2,1.2l0,0c0,0.7-0.5,1.2-1.2,1.2h-2.2c-0.7,0-1.2-0.5-1.2-1.2l0,0
			C389.4,433.1,389.9,432.5,390.5,432.5z"/>
		<path fill="#E6E6E6" d="M365.5,432.7H379c0.7,0,1.2,0.5,1.2,1.2v0c0,0.7-0.5,1.2-1.2,1.2h-13.4c-0.7,0-1.2-0.5-1.2-1.2v0
			C364.3,433.3,364.9,432.7,365.5,432.7z"/>
		<path fill="#E6E6E6" d="M365.4,427.2h2.2c0.7,0,1.2,0.5,1.2,1.2l0,0c0,0.7-0.5,1.2-1.2,1.2h-2.2c-0.7,0-1.2-0.5-1.2-1.2l0,0
			C364.2,427.7,364.7,427.2,365.4,427.2z"/>
		<path fill="#E6E6E6" d="M390.1,427.2h2.2c0.7,0,1.2,0.5,1.2,1.2l0,0c0,0.7-0.5,1.2-1.2,1.2h-2.2c-0.7,0-1.2-0.5-1.2-1.2l0,0
			C388.9,427.7,389.5,427.2,390.1,427.2z"/>
		<path fill="#E6E6E6" d="M397.1,427.2h2.2c0.7,0,1.2,0.5,1.2,1.2l0,0c0,0.7-0.5,1.2-1.2,1.2h-2.2c-0.7,0-1.2-0.5-1.2-1.2l0,0
			C396,427.7,396.5,427.2,397.1,427.2z"/>
		<path fill="#E6E6E6" d="M372.1,427.4h13.4c0.7,0,1.2,0.5,1.2,1.2v0c0,0.7-0.5,1.2-1.2,1.2h-13.4c-0.7,0-1.2-0.5-1.2-1.2v0
			C370.9,427.9,371.5,427.4,372.1,427.4z"/>
		<path fill="#E6E6E6" d="M372,421.8h2.2c0.7,0,1.2,0.5,1.2,1.2l0,0c0,0.7-0.5,1.2-1.2,1.2H372c-0.7,0-1.2-0.5-1.2-1.2l0,0
			C370.8,422.3,371.3,421.8,372,421.8z"/>
		<path fill="#E6E6E6" d="M396.7,421.8h2.2c0.7,0,1.2,0.5,1.2,1.2l0,0c0,0.7-0.5,1.2-1.2,1.2h-2.2c-0.7,0-1.2-0.5-1.2-1.2l0,0
			C395.5,422.3,396.1,421.8,396.7,421.8z"/>
		<path fill="#E6E6E6" d="M403.7,421.8h2.2c0.7,0,1.2,0.5,1.2,1.2l0,0c0,0.7-0.5,1.2-1.2,1.2h-2.2c-0.7,0-1.2-0.5-1.2-1.2l0,0
			C402.5,422.3,403.1,421.8,403.7,421.8z"/>
		<path fill="#E6E6E6" d="M378.7,422h13.4c0.7,0,1.2,0.5,1.2,1.2v0c0,0.7-0.5,1.2-1.2,1.2h-13.4c-0.7,0-1.2-0.5-1.2-1.2v0
			C377.5,422.5,378.1,422,378.7,422z"/>
	</g>
	<g>
		<path fill="#198754" d="M382.4,557.9c-0.3,0.2-0.7,0.3-1,0.5c-8.7,4.4-15.7,6.9-25.3,9.6c-0.8-9-1.6-24.9-2.3-34.7
			c-0.2-2.5-0.4-4.7-0.6-6.2c0-0.8-0.2-1.6-0.5-2.4l0,2.4l0.1,6.2l0.5,35.5c-11.9,3.1-24.1,4.9-36.4,5.2c-0.6,0-1.3,0-1.9,0
			c-0.2,0-0.4,0-0.6,0c-0.7,0-1.4,0-2.1,0c-13,0-25.9-1.6-38.5-4.7c0.3-8.9,0.5-24.6,0.8-36.1c0.1-2.3,0.1-4.3,0.2-6.2
			c0.1-4,0.2-6.8,0.3-7.8c-0.1,0.2-0.2,0.3-0.2,0.5c-0.5,2.4-0.9,4.8-1,7.2c-0.2,1.9-0.4,3.9-0.6,6.2c-1,12-2.1,28.2-3.2,35.1
			c-6.6-1.8-13-4-19.3-6.7c-3.3-1.4-6.6-2.9-9.8-4.5c0.6-4,1.2-8.4,1.9-13.1c0.5-3.6,1-7.3,1.6-10.9c0.8-5.6,1.7-11.1,2.5-16
			c1.3-7.1,2.6-12.8,3.8-15.4c1.2-2.5,2.4-4.9,3.6-7.3c0.4-0.8,0.8-1.6,1.2-2.4c0.1-0.2,0.2-0.4,0.3-0.6c0.8-1.7,1.7-3.3,2.4-4.8
			c0.7-1.3,1.3-2.5,1.9-3.6c1.5-2.7,2.7-4.8,3.6-6.2c3.8-5.8,9.6-10.2,16.2-12.3l0.2,0l0.1,0l11.3-3.5l1.7-0.5l1.1-0.3l3.9-3
			l2.1-1.6l2-1.5l3.9-3l24.2,1.5l4.7,11.3l10.5,3.9l0.2-0.1l0.2-0.1l0.2,0c6.6,2.1,12.4,6.5,16.2,12.3c0.5,0.8,1.2,1.8,1.9,3.1
			c0.6,1.1,1.3,2.3,2,3.6c1,1.9,2.1,4,3.3,6.4c0.3,0.5,0.5,1,0.8,1.6c0.5,1,1,2,1.5,3c1.2,2.4,2.4,4.8,3.6,7.3
			c1.1,2.2,2.1,6.6,3.2,12.3c0.9,4.7,1.7,10.2,2.6,16c1.1,7.5-0.1,16.4,0.9,23.3C382.3,557.1,382.4,557.5,382.4,557.9z"/>
		<circle fill="#A0616A" cx="312.6" cy="422" r="28.1"/>
		<path fill="#2F2E41" d="M359,384.7c-0.6-1.3-1.3-2.5-2.2-3.6c-4.3-5.2-12-7.5-20-1.3c-1.5-0.3-3.1-0.3-4.6,0.3
			c-0.7,0.3-1.4,0.6-1.9,1.1c-1.2,0.9-2.1,2.2-2.7,3.6c-0.3,0.7-0.5,1.5-0.6,2.3c-2-1-4.1-1.8-6.2-2.3c-5.3-1.3-10.8-1.3-16.1,0
			c-1.7,0.4-3.3,1.1-4.9,1.9c-2.6,1.5-4.1,3.4-4.3,5.5c-3.7,0.2-7.6,2.2-10.5,5.4c-0.3,0.4-0.6,0.7-0.9,1.1
			c-2.4,3.2-3.7,7.1-3.7,11.1v0.7h0.7c1.9,0,3.8,0.4,5.6,1.1c1.2,0.5,2.2,1.1,3.3,1.8c0.7,0.5,1.3,1,1.9,1.5
			c1.3,1.3,2.5,2.8,3.4,4.5c2.3,4.2,3.1,9,2.3,13.7c-0.2,1.1-0.5,2.1-0.8,3.2c-0.5,1.5-1.2,2.9-2.1,4.2c0,0-0.1,0.1-0.1,0.1
			c-0.4,0.6-0.7,1.2-1.1,1.8c-0.2,0.5-0.5,0.9-0.7,1.4c-0.6,1.3-1.2,2.6-1.6,4c-0.8,2.4-1.2,4.9-1.3,7.5c0,0.7,0,1.3,0,2
			c0,1.7,0.2,3.5,0.6,5.2c0,0.2,0.1,0.5,0.1,0.7l0.4,1.8l1,4.2l0.7,2.9l0.6,2.7l0.9-1.3c0.3-0.4,1.1-1.8,2.1-3.7
			c0.7-1.3,1.5-2.8,2.4-4.4c1.2-2.3,2.5-4.9,3.8-7.4c0.5-1,1-2.1,1.5-3.1c1-1.9,1.8-3.7,2.6-5.4c0.7-1.5,1.3-2.8,1.8-3.9
			c0.1,0.7,0.3,1.4,0.3,2.1c0.1,0.7,0.2,1.5,0.2,2.2c0,0.1,0,0.2,0,0.3l0,0.5l0,0.1l0.6,0.1c3.4,0.4,6.8,0.4,10.2,0.1h0
			c4.5-0.3,8.9-1.4,13-3.2c2.4-1,4.5-2.4,6.5-4c0.9-0.8,1.8-1.6,2.6-2.5c0.2-0.2,0.4-0.5,0.6-0.7c1.1-1.3,2-2.8,2.8-4.4
			c0.5-1,0.9-2.1,1.3-3.2c2.1-6.4,2-14.5-0.4-24c0.6-0.1,1.3-0.4,1.8-0.7c1.7-1,2.9-3.1,3.3-5.7l0.6,0.2c2.1-1,4-2.4,5.5-4.2
			c0.3-0.4,0.6-0.7,0.9-1.1C360.7,393.5,360.8,388.8,359,384.7z"/>
		<path fill="#2F2E41" d="M391.6,505.5c-1.7,23.2,0.1,33.4-9.2,52.5c-8.4,4.1-17.2,7.5-26.3,10.1c-0.9,0.3-1.9,0.5-2.8,0.8
			c-11.9,3.1-24.1,4.9-36.4,5.2c-0.6,0-1.3,0-1.9,0c-0.2,0-0.4,0-0.6,0c-0.7,0-1.4,0-2.1,0c-13,0-25.9-1.6-38.5-4.7
			c-1.3-0.3-2.5-0.6-3.8-1c-6.6-1.8-13-4-19.3-6.7c-3.3-1.4-6.6-2.9-9.8-4.5c-0.7-0.4-1.4-0.7-2.2-1.1c-3.7-6.4-5.8-14.3-5.8-23.7
			C235.6,516.3,386,491.5,391.6,505.5z"/>
		<path opacity="0.2" enable-background="new    " d="M391.6,509.5c0.1-1.4,0.2-2.9,0.3-4.5c-5.6-14-156.1,10.8-158.6,27
			c0,1.5,0.1,2.9,0.2,4.3C239.6,520.4,382.6,496.8,391.6,509.5z"/>
		<path fill="#2F2E41" d="M242.7,443.7c0.1-1.9-1.3-3.6-3.3-3.8c-0.2,0-0.3,0-0.5,0c-0.2,0-0.4,0-0.6,0.1l-22,5
			c-1,0.2-1.8,0.9-2.3,1.8c-0.3,0-0.6,0.1-1,0.1c-2.9,0.7-4.7,3.5-4,6.4c0.7,2.9,3.5,4.7,6.4,4c0.8-0.2,1.5-0.5,2.2-1l7.5,21
			c0.8,1.4,2.3,2,3.8,1.7l14.3-3.2c1.5-0.4,2.6-1.6,2.7-3.2L242.7,443.7z M215.2,455.8c-2.1,0.5-4.1-0.8-4.6-2.9
			c-0.5-2.1,0.8-4.1,2.9-4.6c0.1,0,0.1,0,0.2,0c0,0.6,0.2,1.3,0.5,1.8l2.7,4.8C216.4,455.4,215.8,455.7,215.2,455.8z"/>
		<path fill="#3F3D56" d="M239,439.9c0.2,2.8-4.6,6-10.9,7.2c-5.9,1.2-11.1,0.4-12.6-1.8c0.3-0.2,0.6-0.3,1-0.4l22-5
			C238.6,440,238.8,439.9,239,439.9z"/>
		<path fill="#A0616A" d="M223.7,510.5l12.4-6.2l-10.3-27.8l-2.7-14c-1.1-5.7-6.7-9.5-12.4-8.4c-1.8,0.3-3.5,1.2-4.9,2.4l0,0
			c-4.3,3.7-4.9,10.2-1.4,14.7l10.1,12.6L223.7,510.5z"/>
		<g opacity="0.14" enable-background="new    ">
			<image overflow="visible" width="143" height="144" xlink:href="EFE6DE8.png"  transform="matrix(1 0 0 1 192.9265 454.4331)">
			</image>
		</g>
		<path fill="#63FFB4" d="M231,463.8C231,463.8,230.9,463.8,231,463.8l-3.7-1.3c-0.1,0-0.2-0.2-0.2-0.4c0,0,0-0.1,0.1-0.1l2.7-2.9
			c0.1-0.1,0.3-0.1,0.4,0c0.1,0.1,0.1,0.3,0,0.4c0,0,0,0,0,0l-2.4,2.6l3.2,1.1c0.1,0,0.2,0.2,0.2,0.4
			C231.2,463.7,231.1,463.8,231,463.8z"/>
		<path fill="#63FFB4" d="M235.9,462.8c-0.2,0-0.3-0.1-0.3-0.3c0-0.1,0-0.1,0.1-0.2l2.4-2.3l-3.3-1.3c-0.1-0.1-0.2-0.2-0.2-0.4
			c0.1-0.1,0.2-0.2,0.4-0.2c0,0,0,0,0,0l3.7,1.5c0.1,0.1,0.2,0.2,0.2,0.4c0,0,0,0.1-0.1,0.1l-2.7,2.6
			C236.1,462.7,236,462.8,235.9,462.8z"/>
		<path fill="#63FFB4" d="M231.8,465.5C231.7,465.5,231.7,465.4,231.8,465.5c-0.2-0.1-0.3-0.2-0.3-0.4c0,0,0,0,0,0l2.6-8.3
			c0-0.1,0.2-0.2,0.3-0.2c0.1,0,0.2,0.2,0.2,0.3l-2.6,8.3C232,465.4,231.9,465.5,231.8,465.5z"/>
		<path fill="#198754" d="M238.5,501.2l-16.5,8.2l12.5,39.2c1.8,5.7,6.5,10.1,12.4,11.5l0,0c7.3,1.7,14.8-1.4,18.7-7.9l33.1-56.8
			c4.9-8.1,2.4-18.7-5.6-23.8l0,0c-8.2-5.2-19-2.7-24.1,5.4c-0.3,0.5-0.6,1.1-0.9,1.6l-20.2,43.1L238.5,501.2z"/>
	</g>
</g>
</svg>
