<svg id="Layer_1" data-name="Layer 1" xmlns="http://www.w3.org/2000/svg" viewBox="0 0 1321.98 1025.06"><defs><style>.cls-1,.cls-9{fill:none;}.cls-1{stroke:#535461;stroke-miterlimit:10;stroke-width:2px;}.cls-2{fill:#6c63ff;}.cls-3{fill:#a7a1ff;}.cls-4{opacity:0.2;}.cls-11,.cls-12,.cls-4{isolation:isolate;}.cls-5{fill:#3f3d56;}.cls-6{fill:#fff;}.cls-7{fill:#ff6584;}.cls-11,.cls-8{fill:#f0f0f0;}.cls-10{fill:#e6e7e8;}.cls-11{opacity:0.3;}.cls-12{opacity:0.1;}.cls-13{fill:#575a89;}.cls-14{fill:#a0616a;}.cls-15{fill:#2f2e41;}.cls-16{fill:#f2f2f2;}</style></defs><title>EditedBlue</title><path class="cls-1" d="M684.59,119.74a317.58,317.58,0,0,0-16.85,55.89,189.76,189.76,0,0,0,15.42,119.15c42.05,88.47,6.62,208.68,6.62,208.68" transform="translate(-310.83 -37.94)"/><path class="cls-2" d="M684.36,38A26.68,26.68,0,0,1,711.85,63.8c0,14.64-26.68,57.48-26.68,57.48S658.51,78.54,658.51,63.8A26.7,26.7,0,0,1,684.36,38Z" transform="translate(-310.83 -37.94)"/><path class="cls-2" d="M622.09,109.54a26.68,26.68,0,0,1,37.1,6.87c8,12.35,8.85,62.74,8.85,62.74s-45.63-21.36-53.62-33.74A26.68,26.68,0,0,1,622.09,109.54Z" transform="translate(-310.83 -37.94)"/><path class="cls-2" d="M615.37,284.39a26.68,26.68,0,1,1,25-47.16c13.15,6.63,39.3,49.69,39.3,49.69s-50.16,4.58-63.32-2Z" transform="translate(-310.83 -37.94)"/><path class="cls-2" d="M641.66,389.9c-.73-.49-1.43-1-2.11-1.56a26.69,26.69,0,0,1,33.83-41.28c11.74,8.77,30.24,55.61,30.24,55.61s-50.22-3.83-62.06-12.6Z" transform="translate(-310.83 -37.94)"/><path class="cls-2" d="M724.07,182c.34-.31.67-.63,1-.95a26.68,26.68,0,0,0-38.14-37.32c-10.61,10.28-22.68,59.18-22.68,59.18S713.47,192.26,724,182Z" transform="translate(-310.83 -37.94)"/><path class="cls-2" d="M763.55,270.29A26.68,26.68,0,0,0,728,257.74c-13.16,6.65-39.31,49.69-39.31,49.69s50.16,4.58,63.32-2A26.68,26.68,0,0,0,763.55,270.29Z" transform="translate(-310.83 -37.94)"/><path class="cls-2" d="M762.58,428.88A26.69,26.69,0,0,0,730.85,386c-11.76,8.77-30.23,55.61-30.23,55.61s50.19-3.85,62-12.6Z" transform="translate(-310.83 -37.94)"/><path class="cls-3" d="M684.36,38A26.68,26.68,0,0,1,711.85,63.8c0,14.64-26.68,57.48-26.68,57.48S658.51,78.54,658.51,63.8A26.7,26.7,0,0,1,684.36,38Z" transform="translate(-310.83 -37.94)"/><path class="cls-3" d="M622.09,109.54a26.68,26.68,0,0,1,37.1,6.87c8,12.35,8.85,62.74,8.85,62.74s-45.63-21.36-53.62-33.74A26.68,26.68,0,0,1,622.09,109.54Z" transform="translate(-310.83 -37.94)"/><path class="cls-3" d="M615.37,284.39a26.68,26.68,0,1,1,25-47.16c13.15,6.63,39.3,49.69,39.3,49.69s-50.16,4.58-63.32-2Z" transform="translate(-310.83 -37.94)"/><path class="cls-3" d="M641.66,389.9c-.73-.49-1.43-1-2.11-1.56a26.69,26.69,0,0,1,33.83-41.28c11.74,8.77,30.24,55.61,30.24,55.61s-50.22-3.83-62.06-12.6Z" transform="translate(-310.83 -37.94)"/><path class="cls-3" d="M724.07,182c.34-.31.67-.63,1-.95a26.68,26.68,0,0,0-38.14-37.32c-10.61,10.28-22.68,59.18-22.68,59.18S713.47,192.26,724,182Z" transform="translate(-310.83 -37.94)"/><path class="cls-3" d="M763.55,270.29A26.68,26.68,0,0,0,728,257.74c-13.16,6.65-39.31,49.69-39.31,49.69s50.16,4.58,63.32-2A26.68,26.68,0,0,0,763.55,270.29Z" transform="translate(-310.83 -37.94)"/><path class="cls-3" d="M762.58,428.88A26.69,26.69,0,0,0,730.85,386c-11.76,8.77-30.23,55.61-30.23,55.61s50.19-3.85,62-12.6Z" transform="translate(-310.83 -37.94)"/><path class="cls-4" d="M604.59,514.52c-1.51,7.33,2.52,13.1,16.63,15.62,48.86,8.54,115,11.39,129.34,5.7s23-39.94,23-39.94l-1.54-.33c-3,9.75-10.6,30.59-21.54,34.95-14.36,5.69-80.48,2.85-129.33-5.72C610.64,523,605.73,519.28,604.59,514.52Z" transform="translate(-310.83 -37.94)"/><path class="cls-1" d="M1455.22,510.17s-33.19-112.63,6.21-195.51A177.86,177.86,0,0,0,1475.87,203a297.09,297.09,0,0,0-15.79-52.36" transform="translate(-310.83 -37.94)"/><path class="cls-2" d="M1484.51,98.26c0,13.81-25,53.85-25,53.85s-25-40.13-25-53.85a25,25,0,0,1,50,0Z" transform="translate(-310.83 -37.94)"/><path class="cls-2" d="M1525.82,174.72c-7.48,11.59-50.23,31.61-50.23,31.61s.78-47.21,8.29-58.78a25,25,0,0,1,41.94,27.17Z" transform="translate(-310.83 -37.94)"/><path class="cls-2" d="M1524,305.38c-12.32,6.21-59.32,1.92-59.32,1.92s24.5-40.35,36.82-46.56a25,25,0,1,1,23.4,44.19C1524.64,305.09,1524.33,305.24,1524,305.38Z" transform="translate(-310.83 -37.94)"/><path class="cls-2" d="M1500.4,403.94c-11.1,8.21-58.14,11.8-58.14,11.8s17.32-43.88,28.33-52.1a25,25,0,0,1,31.69,38.67,23.32,23.32,0,0,1-2,1.46Z" transform="translate(-310.83 -37.94)"/><path class="cls-2" d="M1423.14,209c9.89,9.61,56,19.59,56,19.59s-11.3-45.82-21.24-55.45a25,25,0,0,0-35.74,35l.92.89Z" transform="translate(-310.83 -37.94)"/><path class="cls-2" d="M1397,324.6c12.32,6.21,59.32,1.91,59.32,1.91s-24.5-40.32-36.83-46.55A25,25,0,0,0,1397,324.6Z" transform="translate(-310.83 -37.94)"/><path class="cls-2" d="M1387,440.46c11.09,8.19,58.12,11.8,58.12,11.8s-17.31-43.88-28.33-52.1A25,25,0,0,0,1387,440.29Z" transform="translate(-310.83 -37.94)"/><path class="cls-2" d="M1484.51,98.26c0,13.81-25,53.85-25,53.85s-25-40.13-25-53.85a25,25,0,0,1,50,0Z" transform="translate(-310.83 -37.94)"/><path class="cls-2" d="M1525.82,174.72c-7.48,11.59-50.23,31.61-50.23,31.61s.78-47.21,8.29-58.78a25,25,0,0,1,41.94,27.17Z" transform="translate(-310.83 -37.94)"/><path class="cls-2" d="M1524,305.38c-12.32,6.21-59.32,1.92-59.32,1.92s24.5-40.35,36.82-46.56a25,25,0,1,1,23.4,44.19C1524.64,305.09,1524.33,305.24,1524,305.38Z" transform="translate(-310.83 -37.94)"/><path class="cls-2" d="M1500.4,403.94c-11.1,8.21-58.14,11.8-58.14,11.8s17.32-43.88,28.33-52.1a25,25,0,0,1,31.69,38.67,23.32,23.32,0,0,1-2,1.46Z" transform="translate(-310.83 -37.94)"/><path class="cls-2" d="M1423.14,209c9.89,9.61,56,19.59,56,19.59s-11.3-45.82-21.24-55.45a25,25,0,0,0-35.74,35l.92.89Z" transform="translate(-310.83 -37.94)"/><path class="cls-2" d="M1397,324.6c12.32,6.21,59.32,1.91,59.32,1.91s-24.5-40.32-36.83-46.55A25,25,0,0,0,1397,324.6Z" transform="translate(-310.83 -37.94)"/><path class="cls-2" d="M1387,440.46c11.09,8.19,58.12,11.8,58.12,11.8s-17.31-43.88-28.33-52.1A25,25,0,0,0,1387,440.29Z" transform="translate(-310.83 -37.94)"/><path class="cls-4" d="M1519.52,530.16c-45.77,8-107.71,10.7-121.17,5.36-10.24-4.08-17.37-23.61-20.18-32.74l-1.44.31s8.09,32.08,21.55,37.41,75.4,2.67,121.17-5.33c13.22-2.36,17-7.77,15.58-14.64C1534,525,1529.36,528.44,1519.52,530.16Z" transform="translate(-310.83 -37.94)"/><path class="cls-1" d="M371.84,695.07s-25.8-87.53,4.82-152a138.2,138.2,0,0,0,11.23-86.76,232.12,232.12,0,0,0-12.27-40.7" transform="translate(-310.83 -37.94)"/><path class="cls-2" d="M394.6,374.93c0,10.74-19.41,41.85-19.41,41.85s-19.43-31.19-19.43-41.85a19.43,19.43,0,0,1,38.84,0Z" transform="translate(-310.83 -37.94)"/><path class="cls-2" d="M426.71,434.36c-5.81,9-39,24.57-39,24.57s.6-36.7,6.44-45.69a19.43,19.43,0,0,1,32.6,21.12Z" transform="translate(-310.83 -37.94)"/><path class="cls-2" d="M425.32,535.91c-9.58,4.83-46.11,1.49-46.11,1.49s19.05-31.36,28.62-36.18A19.43,19.43,0,1,1,426,535.56Z" transform="translate(-310.83 -37.94)"/><path class="cls-2" d="M407,612.51c-8.62,6.38-45.19,9.17-45.19,9.17s13.47-34.1,22-40.49a19.43,19.43,0,1,1,24.63,30,16.86,16.86,0,0,1-1.53,1.14Z" transform="translate(-310.83 -37.94)"/><path class="cls-2" d="M346.9,461c7.69,7.47,43.54,15.23,43.54,15.23s-8.79-35.61-16.51-43.1a19.43,19.43,0,1,0-27.78,27.18c.23.23.47.47.72.69Z" transform="translate(-310.83 -37.94)"/><path class="cls-2" d="M326.56,550.85c9.57,4.82,46.1,1.48,46.1,1.48S353.62,521,344,516.15a19.43,19.43,0,0,0-17.48,34.7Z" transform="translate(-310.83 -37.94)"/><path class="cls-2" d="M318.78,640.89c8.62,6.37,45.17,9.18,45.17,9.18s-13.45-34.11-22-40.5a19.43,19.43,0,0,0-23.1,31.19Z" transform="translate(-310.83 -37.94)"/><path class="cls-2" d="M394.6,374.93c0,10.74-19.41,41.85-19.41,41.85s-19.43-31.19-19.43-41.85a19.43,19.43,0,0,1,38.84,0Z" transform="translate(-310.83 -37.94)"/><path class="cls-2" d="M426.71,434.36c-5.81,9-39,24.57-39,24.57s.6-36.7,6.44-45.69a19.43,19.43,0,0,1,32.6,21.12Z" transform="translate(-310.83 -37.94)"/><path class="cls-2" d="M425.32,535.91c-9.58,4.83-46.11,1.49-46.11,1.49s19.05-31.36,28.62-36.18A19.43,19.43,0,1,1,426,535.56Z" transform="translate(-310.83 -37.94)"/><path class="cls-2" d="M407,612.51c-8.62,6.38-45.19,9.17-45.19,9.17s13.47-34.1,22-40.49a19.43,19.43,0,1,1,24.63,30,16.86,16.86,0,0,1-1.53,1.14Z" transform="translate(-310.83 -37.94)"/><path class="cls-2" d="M346.9,461c7.69,7.47,43.54,15.23,43.54,15.23s-8.79-35.61-16.51-43.1a19.43,19.43,0,1,0-27.78,27.18c.23.23.47.47.72.69Z" transform="translate(-310.83 -37.94)"/><path class="cls-2" d="M326.56,550.85c9.57,4.82,46.1,1.48,46.1,1.48S353.62,521,344,516.15a19.43,19.43,0,0,0-17.48,34.7Z" transform="translate(-310.83 -37.94)"/><path class="cls-2" d="M318.78,640.89c8.62,6.37,45.17,9.18,45.17,9.18s-13.45-34.11-22-40.5a19.43,19.43,0,0,0-23.1,31.19Z" transform="translate(-310.83 -37.94)"/><path class="cls-4" d="M421.81,710.61c-35.57,6.24-83.71,8.31-94.17,4.17-8-3.18-13.51-18.35-15.69-25.45l-1.12.24s6.3,24.93,16.75,29.08,58.6,2.07,94.18-4.15c10.27-1.83,13.21-6,12.11-11.37C433,706.59,429.46,709.27,421.81,710.61Z" transform="translate(-310.83 -37.94)"/><path class="cls-5" d="M614.16,509.84c48.3-47.95,128.17-50.19,190.74-23.36a295.9,295.9,0,0,1,57.83,33.11c10.4,7.58,20.69,15.56,30.5,24,2.39,2,4.81,4.26,7.2,6.3,1.66,1.41,3.18,3,4.81,4.26,20.12,18.42,39.36,38.2,58.18,57.87,47,49.1,95.19,99.69,157.1,128,12.78,5.9,29.67,9.95,39.23-.29,8.3-8.79,5.82-23.32,1.12-34.44-17.38-41.48-54.74-71.11-93-95.07-38.07-23.8-79.23-44.61-111-76.4-31.79-32-53.28-79-40.52-122.21,11.06-37.33,46-64.28,83.66-73s77.77-2,114.08,11.63c36.27,13.44,70.18,33.24,104.62,51,20.82,10.64,48.57,19.82,65.46,3.54,14.1-13.73,10.14-38.9-3.11-53.49s-32.87-21.39-51.63-27.78c-58.28-19.53-116.33-38.91-174.58-58.26-17.88-6-36-12.12-50.79-23.85s-25.4-30.4-22.68-49c2.76-18.37,18.24-33,35.73-39s36.7-4.84,55-1.67c68.4,11.92,252.27,146.4,297.73,166.3,29.29,12.77,61,30.31,70.15,60.81,11.37,38.06-20.32,78.59-58.45,90.56-37.94,11.94-79.11,3.06-117.48-7.39s-77.9-22.61-117.33-16.81S1068,481,1066.87,520.77c-1.08,34.63,26.53,64.37,57.57,79.89,24.25,12.07,50.91,18,77.1,25.32,7.26,2,14.38,4.19,21.53,6.59a281.8,281.8,0,0,1,132.7,96.83c1.41,2.05,3,3.87,4.38,5.92,1.37,1.86,2.6,3.94,4,6,16.87,26.14,27.76,57.27,19.72,86.73s-34.69,51.32-64.15,59.9a140.88,140.88,0,0,1-52.32,4,209.7,209.7,0,0,1-38-7.61c-57.5-16.76-107.59-52.1-154.37-89.31s-92-77.29-144.29-106.31c-52.46-29-114-46.25-172.42-33.29-58.49,12.76-111.18,61.25-116.14,120.95-33-36.62-59.53-80.85-67.46-129.41C566.75,598.06,579.29,544.59,614.16,509.84Z" transform="translate(-310.83 -37.94)"/><circle class="cls-6" cx="568.14" cy="572.25" r="6.69"/><circle class="cls-7" cx="327.06" cy="629.32" r="10.14"/><circle class="cls-7" cx="1339.46" cy="433.37" r="3.63" transform="translate(-371.53 248.77) rotate(-11.95)"/><circle class="cls-7" cx="1223.36" cy="251.5" r="3.63" transform="translate(-336.4 220.79) rotate(-11.95)"/><path class="cls-7" d="M1203.51,638a34.21,34.21,0,0,1,2.48-9.51c7.26,2,14.38,4.19,21.53,6.58a281.75,281.75,0,0,1,52.26,24.33,40.06,40.06,0,0,1-76.27-21.4Z" transform="translate(-310.83 -37.94)"/><circle class="cls-8" cx="801.38" cy="196.42" r="3.83"/><circle class="cls-8" cx="753.53" cy="136.57" r="3.83"/><circle class="cls-8" cx="1072.42" cy="329.86" r="3.83"/><circle class="cls-8" cx="876.17" cy="377.06" r="3.83"/><circle class="cls-8" cx="847.25" cy="757.73" r="3.83"/><circle class="cls-8" cx="654.55" cy="430.02" r="3.83"/><circle class="cls-8" cx="634.3" cy="360.22" r="3.83"/><path class="cls-9" d="M1264.3,740.55c-5.65,1-11.08,2.15-16.32,3.26-31.94,7.93-51.52,21.65-53.41,37.69s13.29,34.14,42.42,49.86c2.87,1.55,5.92,3,9,4.56a123.29,123.29,0,0,1,18.33-95.37Z" transform="translate(-310.83 -37.94)"/><path class="cls-6" d="M1238.54,795.26a122.35,122.35,0,0,1,20.29-53.75,76.48,76.48,0,0,1,4.55-6.24,124,124,0,0,1,61-42.24,283.46,283.46,0,0,1,32.25,36c1.41,2,3,3.86,4.38,5.91,1.37,1.86,2.59,4,4,6,16.87,26.14,27.76,57.26,19.73,86.72s-34.69,51.33-64.15,59.91a140.89,140.89,0,0,1-52.32,4,123.37,123.37,0,0,1-26-48.06c-.66-2.2-1.13-4.45-1.65-6.88A108,108,0,0,1,1238.54,795.26Z" transform="translate(-310.83 -37.94)"/><circle class="cls-10" cx="1035.32" cy="830.73" r="3.83"/><circle class="cls-10" cx="959.43" cy="800.07" r="3.83"/><circle class="cls-10" cx="1005.34" cy="766.7" r="37.29"/><path class="cls-11" d="M656.46,522.19c8.49-1.4,27.18-.86,47.6.49,20.23,1.38,42.43,3.72,64.44,6.1,38.38,4,76.57,8,115,12,5.41.61,10.59,1.08,15.81,1.73,2.38,2,4.81,4.26,7.2,6.3-4.62-.58-9.43-1.13-14.05-1.72-19.83-2.25-36.94-2.74-56.24-4.32-29.66-2.52-61.41-7.53-92-11.8C713.48,526.55,678.55,522.21,656.46,522.19Z" transform="translate(-310.83 -37.94)"/><path class="cls-11" d="M1278.74,313.68l109,116.9L1282.68,310.11a2.74,2.74,0,1,0-5,2.23A3,3,0,0,0,1278.74,313.68Z" transform="translate(-310.83 -37.94)"/><circle class="cls-10" cx="1011.45" cy="675.48" r="3.83"/><path class="cls-5" d="M1351.61,1011.36c0,28.52-154.12,51.64-344.25,51.64s-344.25-23.12-344.25-51.64c0-20.19,77.25-37.68,189.85-46.16,46.43-3.51,98.89-5.48,154.4-5.48,22.82,0,45.12.34,66.68,1C1232.25,965.35,1351.61,986.27,1351.61,1011.36Z" transform="translate(-310.83 -37.94)"/><ellipse class="cls-12" cx="652.11" cy="967.87" rx="132.15" ry="16.1"/><ellipse class="cls-5" cx="651.55" cy="846.27" rx="124.93" ry="133.26"/><polygon class="cls-13" points="792.58 942.33 788.14 966.76 817.01 971.2 835.89 960.1 834.78 942.33 792.58 942.33"/><path class="cls-14" d="M957.94,521.64s-2.22,25.54-7.77,26.65,12.21,45.53,12.21,45.53H989l21.09-5.55-10-24.44s-13.33-17.76-3.33-32.2S957.94,521.64,957.94,521.64Z" transform="translate(-310.83 -37.94)"/><path class="cls-12" d="M957.94,521.64s-2.22,25.54-7.77,26.65,12.21,45.53,12.21,45.53H989l21.09-5.55-10-24.44s-13.33-17.76-3.33-32.2S957.94,521.64,957.94,521.64Z" transform="translate(-310.83 -37.94)"/><path class="cls-15" d="M902.42,717.08s-28.88,55.53-5.56,66.63,28.88,10,28.88,13.33-4.44,2.22-2.22,7.77-4.45,27.76,2.22,41.09,4.44,23.32,4.44,23.32,0,1.11,2.22,5.55,3.33,7.78,2.22,10-7.77,16.65-1.11,20,41.09,5.55,44.42,0-3.33-8.89,0-12.22,5.55-4.44,3.33-6.66-4.44-30-4.44-30,5.55-32.2,3.33-36.64-5.55-8.89-3.33-12.22,4.44-2.22,5.55-6.66,3.33-14.44,3.33-14.44l12.22-1.11,28.87,5.55S1059,825.91,1094.53,837c0,0,10,10,13.33,10s3.33,0,2.22,2.22-4.44,2.22-2.22,4.44,5.55-1.11,3.33,2.22-4.44,3.34-2.22,5.56-1.11,14.43-1.11,15.54-10,105.5-6.67,107.72,50,8.88,53.31,0-2.22-20-2.22-20,16.65-133.26,12.21-142.14-20-48.86-103.27-74.4c0,0-23.32-4.45-23.32-7.78s-2.22-24.43-6.67-25.54-30-2.22-30-2.22l-32.2,10-44.42-7.77Z" transform="translate(-310.83 -37.94)"/><path class="cls-15" d="M941.28,903.64l-5.55,20s-4.44,32.21,1.11,40c4.36,6.11,12.15,13.58,26.59,14.9a17.84,17.84,0,0,0,18.63-12.35,5.45,5.45,0,0,0,.31-1.44c0-2.22-3.33-28.87-3.33-28.87l-5.55-27.76-1.11-7.78Z" transform="translate(-310.83 -37.94)"/><path class="cls-15" d="M1103.42,999.15s-5.56-5.56-6.67,0-5.55,28.87,2.22,30,82.18,12.22,90,7.77,22.21-11.1,13.33-14.43-34.43-13.33-34.43-13.33-14.43-18.88-16.65-20-14.44,1.11-20,5.55S1103.42,999.15,1103.42,999.15Z" transform="translate(-310.83 -37.94)"/><circle class="cls-14" cx="673.76" cy="472.59" r="34.43"/><path class="cls-2" d="M981.26,588.27l-13.32-14.44L953.16,545s-10.77-3.33-13,2.22S898,570.5,898,570.5s10,93.28,5.55,102.16-12.22,44.42-5.55,47.75,37.75,0,47.75,4.45,38.86,4.44,46.64-1.11,10-10,17.76-6.67c6.62,2.84,22.09-94.12,26.55-123a13.16,13.16,0,0,0-5.45-12.78c-10-7-27.91-19-31.09-17.45C995.7,566.06,981.26,588.27,981.26,588.27Z" transform="translate(-310.83 -37.94)"/><path class="cls-2" d="M1029,583.82h0a13.18,13.18,0,0,1,9.9,11.33l9,80.84s-22.21,47.76-33.31,15.55S1029,583.82,1029,583.82Z" transform="translate(-310.83 -37.94)"/><path class="cls-2" d="M1026.79,683.77l24.43-6.67s4.44,31.1,8.89,31.1-15.55,17.77-25.54,15.55-24.44-10-25.55-15.55,10-28.87,10-28.87Z" transform="translate(-310.83 -37.94)"/><path class="cls-15" d="M958.61,525.38c2.34-5.16,1.93-11.18,3.87-16.51a19.67,19.67,0,0,1,29.93-9.3c2.49,1.77,5,4.26,8,3.93,3.27-.37,6.19-4,9.2-2.68,3.33,1.48,2.43,7.46,5.81,8.84,1.78.72,3.88-.39,4.91-2a12.68,12.68,0,0,0,1.43-5.52c.46-4.74.88-9.75-1.17-14.05a31.94,31.94,0,0,1-2.25-4.54,15.33,15.33,0,0,1-.43-4.48c0-5.57-.43-11.37-3.23-16.18-3.11-5.34-8.85-8.75-14.85-10.24s-12.28-1.27-18.43-.74c-10.18.86-20.79,2.7-28.81,9a11.24,11.24,0,0,0-2.76,2.91,14.77,14.77,0,0,0-1.48,4.26,87.85,87.85,0,0,1-7.74,20.3,44.07,44.07,0,0,0-4,8.62c-.85,3.06-.79,6.55,1,9.18,1.45,2.14,3.76,3.28,5.58,5s2.65,5.07,4.65,6.38c1.74,1.15,3.83.34,5.61,1.55C955.75,520.71,955.92,524.13,958.61,525.38Z" transform="translate(-310.83 -37.94)"/><path class="cls-16" d="M986.81,604.92l3.34-6.66S1039,612.7,1049,626c0,0,24.43-15.54,37.76-13.32l13.32,2.22L1059,651.56l-52.2-4.44Z" transform="translate(-310.83 -37.94)"/><path class="cls-5" d="M984.59,598.26l-45.53,63.3,65.52,32.2s6.13,3.33,10.84,0l43.58-20,41.08-58.85L1059,636s-4.45-8.89-13.33-4.45Z" transform="translate(-310.83 -37.94)"/><path class="cls-14" d="M1054.55,710.42l8.89-23.32s20-25.54,8.88-37.76S1049,684.88,1049,684.88Z" transform="translate(-310.83 -37.94)"/><path class="cls-14" d="M952.05,706.7,971.44,691s30.1-12.06,26.63-28.2-38,19-38,19Z" transform="translate(-310.83 -37.94)"/><path class="cls-12" d="M904.08,594.37H903s-17.21-20.54-20.54,7.22S868,721.52,896.86,724.86,946.28,711,946.28,711s21.1-32.2,13.33-32.2c-3.76,0-14-1.69-23.32-1.11-10,.62-18.9,3.42-18.33.56C919.07,672.66,935.18,602.15,904.08,594.37Z" transform="translate(-310.83 -37.94)"/><path class="cls-2" d="M902.42,572.72,898,570.5s-17.77,3.33-21.1,31.09-14.44,119.93,14.43,123.27,67.74-4.45,67.74-4.45,7.78-42.19,0-42.19-47.75,5.55-46.64,0S933.51,580.49,902.42,572.72Z" transform="translate(-310.83 -37.94)"/><polygon class="cls-2" points="727.62 659.71 739.87 640.94 747.61 671.93 727.62 680.81 727.62 659.71"/><path class="cls-1" d="M1269.06,1013.39S1251,952,1272.44,906.82a97,97,0,0,0,7.88-60.85,162.35,162.35,0,0,0-8.61-28.54" transform="translate(-310.83 -37.94)"/><path class="cls-2" d="M1285,788.86c0,7.53-13.61,29.35-13.61,29.35s-13.63-21.87-13.63-29.35a13.63,13.63,0,0,1,27.24,0Z" transform="translate(-310.83 -37.94)"/><path class="cls-2" d="M1307.54,830.54c-4.08,6.32-27.38,17.23-27.38,17.23s.43-25.73,4.52-32a13.62,13.62,0,0,1,22.86,14.81Z" transform="translate(-310.83 -37.94)"/><path class="cls-2" d="M1306.57,901.76c-6.72,3.39-32.34,1-32.34,1s13.36-22,20.07-25.38a13.63,13.63,0,0,1,12.76,24.08Z" transform="translate(-310.83 -37.94)"/><path class="cls-2" d="M1293.68,955.49c-6,4.47-31.69,6.43-31.69,6.43s9.45-23.92,15.44-28.4a13.63,13.63,0,0,1,17.28,21.08c-.35.28-.71.55-1.08.8Z" transform="translate(-310.83 -37.94)"/><path class="cls-2" d="M1251.57,849.23c5.39,5.23,30.53,10.68,30.53,10.68s-6.16-25-11.58-30.23A13.63,13.63,0,1,0,1251,848.74l.5.49Z" transform="translate(-310.83 -37.94)"/><path class="cls-2" d="M1237.3,912.24c6.72,3.38,32.34,1,32.34,1s-13.36-22-20.08-25.37a13.62,13.62,0,0,0-12.26,24.33Z" transform="translate(-310.83 -37.94)"/><path class="cls-2" d="M1231.84,975.39c6.05,4.47,31.68,6.44,31.68,6.44s-9.43-23.92-15.44-28.4a13.62,13.62,0,0,0-16.2,21.87Z" transform="translate(-310.83 -37.94)"/><path class="cls-2" d="M1285,788.86c0,7.53-13.61,29.35-13.61,29.35s-13.63-21.87-13.63-29.35a13.63,13.63,0,0,1,27.24,0Z" transform="translate(-310.83 -37.94)"/><path class="cls-2" d="M1307.54,830.54c-4.08,6.32-27.38,17.23-27.38,17.23s.43-25.73,4.52-32a13.62,13.62,0,0,1,22.86,14.81Z" transform="translate(-310.83 -37.94)"/><path class="cls-2" d="M1306.57,901.76c-6.72,3.39-32.34,1-32.34,1s13.36-22,20.07-25.38a13.63,13.63,0,0,1,12.76,24.08Z" transform="translate(-310.83 -37.94)"/><path class="cls-2" d="M1293.68,955.49c-6,4.47-31.69,6.43-31.69,6.43s9.45-23.92,15.44-28.4a13.63,13.63,0,0,1,17.28,21.08c-.35.28-.71.55-1.08.8Z" transform="translate(-310.83 -37.94)"/><path class="cls-2" d="M1251.57,849.23c5.39,5.23,30.53,10.68,30.53,10.68s-6.16-25-11.58-30.23A13.63,13.63,0,1,0,1251,848.74l.5.49Z" transform="translate(-310.83 -37.94)"/><path class="cls-2" d="M1237.3,912.24c6.72,3.38,32.34,1,32.34,1s-13.36-22-20.08-25.37a13.62,13.62,0,0,0-12.26,24.33Z" transform="translate(-310.83 -37.94)"/><path class="cls-2" d="M1231.84,975.39c6.05,4.47,31.68,6.44,31.68,6.44s-9.43-23.92-15.44-28.4a13.62,13.62,0,0,0-16.2,21.87Z" transform="translate(-310.83 -37.94)"/><path class="cls-4" d="M1304.11,1024.29c-24.95,4.37-58.72,5.83-66,2.92-5.59-2.23-9.47-12.87-11-17.85l-.79.17s4.41,17.49,11.75,20.4,41.1,1.45,66-2.91c7.2-1.29,9.26-4.24,8.49-8C1312,1021.47,1309.47,1023.35,1304.11,1024.29Z" transform="translate(-310.83 -37.94)"/><path class="cls-1" d="M751.42,780.48a173.22,173.22,0,0,0-9.19,30.46,103.51,103.51,0,0,0,8.41,64.95c22.92,48.22,3.61,113.75,3.61,113.75" transform="translate(-310.83 -37.94)"/><path class="cls-2" d="M751.29,735.9a14.55,14.55,0,0,1,15,14.09c0,8-14.55,31.33-14.55,31.33S737.2,758,737.2,750A14.54,14.54,0,0,1,751.29,735.9Z" transform="translate(-310.83 -37.94)"/><path class="cls-2" d="M717.35,774.92a14.55,14.55,0,0,1,20.22,3.74c4.37,6.73,4.83,34.2,4.83,34.2s-24.88-11.64-29.23-18.39A14.54,14.54,0,0,1,717.35,774.92Z" transform="translate(-310.83 -37.94)"/><path class="cls-2" d="M713.69,870.23a14.55,14.55,0,0,1,13.61-25.71c7.17,3.61,21.43,27.09,21.43,27.09s-27.35,2.5-34.52-1.12Z" transform="translate(-310.83 -37.94)"/><path class="cls-2" d="M728,927.74a12.2,12.2,0,0,1-1.15-.85,14.55,14.55,0,1,1,18.44-22.5c6.4,4.78,16.48,30.31,16.48,30.31s-27.37-2.08-33.83-6.86Z" transform="translate(-310.83 -37.94)"/><path class="cls-2" d="M772.94,814.42l.54-.52a14.55,14.55,0,0,0-20.8-20.35c-5.78,5.61-12.36,32.27-12.36,32.27s26.84-5.81,32.59-11.4Z" transform="translate(-310.83 -37.94)"/><path class="cls-2" d="M794.46,862.54a14.54,14.54,0,0,0-19.4-6.84c-7.17,3.63-21.43,27.09-21.43,27.09s27.35,2.5,34.52-1.12A14.54,14.54,0,0,0,794.46,862.54Z" transform="translate(-310.83 -37.94)"/><path class="cls-2" d="M793.93,949a14.54,14.54,0,0,0-17.29-23.35c-6.42,4.78-16.49,30.31-16.49,30.31s27.36-2.1,33.82-6.87Z" transform="translate(-310.83 -37.94)"/><path class="cls-3" d="M751.29,735.9a14.55,14.55,0,0,1,15,14.09c0,8-14.55,31.33-14.55,31.33S737.2,758,737.2,750A14.54,14.54,0,0,1,751.29,735.9Z" transform="translate(-310.83 -37.94)"/><path class="cls-3" d="M717.35,774.92a14.55,14.55,0,0,1,20.22,3.74c4.37,6.73,4.83,34.2,4.83,34.2s-24.88-11.64-29.23-18.39A14.54,14.54,0,0,1,717.35,774.92Z" transform="translate(-310.83 -37.94)"/><path class="cls-3" d="M713.69,870.23a14.55,14.55,0,0,1,13.61-25.71c7.17,3.61,21.43,27.09,21.43,27.09s-27.35,2.5-34.52-1.12Z" transform="translate(-310.83 -37.94)"/><path class="cls-3" d="M728,927.74a12.2,12.2,0,0,1-1.15-.85,14.55,14.55,0,1,1,18.44-22.5c6.4,4.78,16.48,30.31,16.48,30.31s-27.37-2.08-33.83-6.86Z" transform="translate(-310.83 -37.94)"/><path class="cls-3" d="M772.94,814.42l.54-.52a14.55,14.55,0,0,0-20.8-20.35c-5.78,5.61-12.36,32.27-12.36,32.27s26.84-5.81,32.59-11.4Z" transform="translate(-310.83 -37.94)"/><path class="cls-3" d="M794.46,862.54a14.54,14.54,0,0,0-19.4-6.84c-7.17,3.63-21.43,27.09-21.43,27.09s27.35,2.5,34.52-1.12A14.54,14.54,0,0,0,794.46,862.54Z" transform="translate(-310.83 -37.94)"/><path class="cls-3" d="M793.93,949a14.54,14.54,0,0,0-17.29-23.35c-6.42,4.78-16.49,30.31-16.49,30.31s27.36-2.1,33.82-6.87Z" transform="translate(-310.83 -37.94)"/><path class="cls-4" d="M707.81,995.67c-.82,4,1.38,7.14,9.07,8.52,26.63,4.65,62.67,6.2,70.5,3.1s12.54-21.77,12.54-21.77l-.84-.18c-1.64,5.32-5.78,16.68-11.75,19-7.82,3.11-43.86,1.55-70.49-3.12C711.11,1000.27,708.43,998.27,707.81,995.67Z" transform="translate(-310.83 -37.94)"/><path class="cls-2" d="M979.52,496.74a91.19,91.19,0,0,1-36.94-8.09,3.91,3.91,0,0,1-2.32-3.58V453.3a3.94,3.94,0,0,1,3.93-3.93h70.66a3.93,3.93,0,0,1,3.92,3.93v31.77a3.9,3.9,0,0,1-2.31,3.58h0A91.23,91.23,0,0,1,979.52,496.74Z" transform="translate(-310.83 -37.94)"/><path class="cls-2" d="M979.51,471a3.84,3.84,0,0,1-1.53-.31l-56-23.63a3.92,3.92,0,0,1,.14-7.29l56-21.26a3.92,3.92,0,0,1,2.8,0l55.28,21.26a3.92,3.92,0,0,1,.13,7.27l-55.28,23.64A3.89,3.89,0,0,1,979.51,471Z" transform="translate(-310.83 -37.94)"/><circle class="cls-5" cx="635.97" cy="447.64" r="5.23"/><path class="cls-4" d="M1036.52,443.69l-55.28,23.64a3.5,3.5,0,0,1-2.73,0l-56-23.64a3.4,3.4,0,0,1-1.66-1.47,3.49,3.49,0,0,0,1.27,4.77l.39.19,56,23.64a3.5,3.5,0,0,0,2.73,0l55.28-23.64a3.48,3.48,0,0,0,1.84-4.57c0-.13-.12-.26-.18-.38A3.42,3.42,0,0,1,1036.52,443.69Z" transform="translate(-310.83 -37.94)"/><path class="cls-5" d="M947.25,485.55a.87.87,0,0,0,.87-.87V455.49L976.89,445a.87.87,0,0,0,0-1.74l-28.77,10.48a1.73,1.73,0,0,0-1.25.5,1.77,1.77,0,0,0-.52,1.24v29.19A.87.87,0,0,0,947.25,485.55Z" transform="translate(-310.83 -37.94)"/><path class="cls-1" d="M1572.1,589.51a215.93,215.93,0,0,0-11.5,38.14A129.51,129.51,0,0,0,1571.12,709c28.7,60.37,4.52,142.41,4.52,142.41" transform="translate(-310.83 -37.94)"/><path class="cls-2" d="M1571.94,533.7a18.2,18.2,0,0,1,18.76,17.64c0,10-18.21,39.22-18.21,39.22s-18.19-29.16-18.19-39.22A18.21,18.21,0,0,1,1571.94,533.7Z" transform="translate(-310.83 -37.94)"/><path class="cls-2" d="M1529.45,582.55a18.21,18.21,0,0,1,25.32,4.69c5.46,8.43,6,42.82,6,42.82s-31.14-14.58-36.59-23A18.21,18.21,0,0,1,1529.45,582.55Z" transform="translate(-310.83 -37.94)"/><path class="cls-2" d="M1524.86,701.87a18.21,18.21,0,0,1,17-32.18c9,4.52,26.83,33.91,26.83,33.91s-34.24,3.13-43.21-1.39Z" transform="translate(-310.83 -37.94)"/><path class="cls-2" d="M1542.8,773.87a16.67,16.67,0,0,1-1.44-1.06,18.21,18.21,0,1,1,23.09-28.17c8,6,20.63,38,20.63,38s-34.27-2.61-42.35-8.6Z" transform="translate(-310.83 -37.94)"/><path class="cls-2" d="M1599,632c.23-.21.45-.43.67-.65a18.21,18.21,0,1,0-26-25.47c-7.24,7-15.47,40.39-15.47,40.39S1591.8,639,1599,632Z" transform="translate(-310.83 -37.94)"/><path class="cls-2" d="M1626,692.25a18.21,18.21,0,0,0-24.29-8.56c-9,4.54-26.82,33.91-26.82,33.91s34.23,3.13,43.21-1.4A18.2,18.2,0,0,0,1626,692.25Z" transform="translate(-310.83 -37.94)"/><path class="cls-2" d="M1625.32,800.47a18.21,18.21,0,0,0-21.65-29.23c-8,6-20.64,38-20.64,38s34.26-2.63,42.34-8.6Z" transform="translate(-310.83 -37.94)"/><path class="cls-3" d="M1571.94,533.7a18.2,18.2,0,0,1,18.76,17.64c0,10-18.21,39.22-18.21,39.22s-18.19-29.16-18.19-39.22A18.21,18.21,0,0,1,1571.94,533.7Z" transform="translate(-310.83 -37.94)"/><path class="cls-3" d="M1529.45,582.55a18.21,18.21,0,0,1,25.32,4.69c5.46,8.43,6,42.82,6,42.82s-31.14-14.58-36.59-23A18.21,18.21,0,0,1,1529.45,582.55Z" transform="translate(-310.83 -37.94)"/><path class="cls-3" d="M1524.86,701.87a18.21,18.21,0,0,1,17-32.18c9,4.52,26.83,33.91,26.83,33.91s-34.24,3.13-43.21-1.39Z" transform="translate(-310.83 -37.94)"/><path class="cls-3" d="M1542.8,773.87a16.67,16.67,0,0,1-1.44-1.06,18.21,18.21,0,1,1,23.09-28.17c8,6,20.63,38,20.63,38s-34.27-2.61-42.35-8.6Z" transform="translate(-310.83 -37.94)"/><path class="cls-3" d="M1599,632c.23-.21.45-.43.67-.65a18.21,18.21,0,1,0-26-25.47c-7.24,7-15.47,40.39-15.47,40.39S1591.8,639,1599,632Z" transform="translate(-310.83 -37.94)"/><path class="cls-3" d="M1626,692.25a18.21,18.21,0,0,0-24.29-8.56c-9,4.54-26.82,33.91-26.82,33.91s34.23,3.13,43.21-1.4A18.2,18.2,0,0,0,1626,692.25Z" transform="translate(-310.83 -37.94)"/><path class="cls-3" d="M1625.32,800.47a18.21,18.21,0,0,0-21.65-29.23c-8,6-20.64,38-20.64,38s34.26-2.63,42.34-8.6Z" transform="translate(-310.83 -37.94)"/><path class="cls-4" d="M1517.51,858.92c-1,5,1.71,8.94,11.34,10.66,33.34,5.83,78.46,7.77,88.26,3.89s15.7-27.26,15.7-27.26l-1-.22c-2,6.65-7.23,20.87-14.7,23.85-9.8,3.88-54.92,1.94-88.26-3.9C1521.63,864.68,1518.28,862.17,1517.51,858.92Z" transform="translate(-310.83 -37.94)"/></svg>